M48
;DRILL file {KiCad 4.0.4-stable} date 09/13/16 18:27:19
;FORMAT={3:3/ absolute / metric / suppress leading zeros}
FMAT,2
METRIC,TZ
T1C0.400
T2C1.001
T3C1.016
T4C1.200
T5C2.500
%
G90
G05
M71
T1
X87500Y-132500
T2
X63840Y-113000
X64000Y-109500
X64000Y-116500
X74000Y-113000
X74160Y-109500
X74160Y-116500
X77340Y-116500
X77500Y-109500
X77500Y-113000
X87500Y-116500
X87660Y-109500
X87660Y-113000
T3
X70000Y-103000
X72540Y-103000
X75080Y-103000
X77620Y-103000
X80160Y-103000
T4
X55000Y-111000
X55000Y-114500
X56500Y-121500
X56500Y-137500
X57500Y-145000
X58000Y-104500
X61000Y-145000
X61500Y-104500
X65000Y-145000
X68500Y-145000
X72500Y-145000
X76000Y-145000
X80000Y-145000
X83500Y-145000
X88500Y-104500
X89000Y-145000
X92000Y-104500
X92500Y-145000
X94500Y-121500
X94500Y-137500
X95000Y-111000
X95000Y-114500
T5
X53000Y-103000
X53000Y-147000
X97000Y-103000
X97000Y-147000
T0
M30
