G04 #@! TF.FileFunction,Copper,L2,Bot,Signal*
%FSLAX46Y46*%
G04 Gerber Fmt 4.6, Leading zero omitted, Abs format (unit mm)*
G04 Created by KiCad (PCBNEW 4.0.4-stable) date 09/13/16 18:24:55*
%MOMM*%
%LPD*%
G01*
G04 APERTURE LIST*
%ADD10C,0.100000*%
%ADD11R,1.800860X3.500120*%
%ADD12C,2.400000*%
%ADD13R,2.400000X2.400000*%
%ADD14R,1.651000X3.048000*%
%ADD15R,6.096000X6.096000*%
%ADD16C,1.998980*%
%ADD17R,1.727200X2.032000*%
%ADD18O,1.727200X2.032000*%
%ADD19C,3.400000*%
%ADD20C,0.600000*%
%ADD21C,1.400000*%
%ADD22C,0.530000*%
%ADD23C,0.200000*%
G04 APERTURE END LIST*
D10*
D11*
X63000000Y-126000640D03*
X63000000Y-130999360D03*
X79500000Y-126000640D03*
X79500000Y-130999360D03*
D12*
X61000000Y-145000000D03*
D13*
X57500000Y-145000000D03*
D12*
X68500000Y-145000000D03*
D13*
X65000000Y-145000000D03*
D12*
X76000000Y-145000000D03*
D13*
X72500000Y-145000000D03*
D12*
X83500000Y-145000000D03*
D13*
X80000000Y-145000000D03*
D12*
X55000000Y-114500000D03*
D13*
X55000000Y-111000000D03*
D12*
X95000000Y-111000000D03*
D13*
X95000000Y-114500000D03*
D12*
X92500000Y-145000000D03*
D13*
X89000000Y-145000000D03*
D14*
X72786000Y-132500000D03*
D15*
X70500000Y-126150000D03*
D14*
X68214000Y-132500000D03*
X89286000Y-132500000D03*
D15*
X87000000Y-126150000D03*
D14*
X84714000Y-132500000D03*
D16*
X64000000Y-109500000D03*
X74160000Y-109500000D03*
X77500000Y-109500000D03*
X87660000Y-109500000D03*
X74000000Y-113000000D03*
X63840000Y-113000000D03*
X77500000Y-113000000D03*
X87660000Y-113000000D03*
X64000000Y-116500000D03*
X74160000Y-116500000D03*
X87500000Y-116500000D03*
X77340000Y-116500000D03*
D13*
X94500000Y-137500000D03*
X94500000Y-121500000D03*
X56500000Y-121500000D03*
X56500000Y-137500000D03*
D17*
X70000000Y-103000000D03*
D18*
X72540000Y-103000000D03*
X75080000Y-103000000D03*
X77620000Y-103000000D03*
X80160000Y-103000000D03*
D12*
X88500000Y-104500000D03*
D13*
X92000000Y-104500000D03*
D19*
X53000000Y-147000000D03*
X97000000Y-147000000D03*
X97000000Y-103000000D03*
X53000000Y-103000000D03*
D12*
X58000000Y-104500000D03*
D13*
X61500000Y-104500000D03*
D20*
X87500000Y-132500000D03*
D21*
X55000000Y-111000000D02*
X57500000Y-111000000D01*
X63000000Y-124000000D02*
X63000000Y-126000640D01*
X60000000Y-121000000D02*
X63000000Y-124000000D01*
X60000000Y-113500000D02*
X60000000Y-121000000D01*
X57500000Y-111000000D02*
X60000000Y-113500000D01*
X63000000Y-126000640D02*
X70350640Y-126000640D01*
X70350640Y-126000640D02*
X70500000Y-126150000D01*
X95000000Y-114500000D02*
X88500000Y-121000000D01*
X88500000Y-121000000D02*
X88500000Y-124650000D01*
X88500000Y-124650000D02*
X87000000Y-126150000D01*
X79500000Y-126000640D02*
X86850640Y-126000640D01*
X86850640Y-126000640D02*
X87000000Y-126150000D01*
D22*
X72786000Y-132500000D02*
X73500000Y-132500000D01*
X73500000Y-132500000D02*
X75500000Y-130500000D01*
X75500000Y-130500000D02*
X75500000Y-117840000D01*
X75500000Y-117840000D02*
X74160000Y-116500000D01*
X74000000Y-113000000D02*
X74000000Y-116340000D01*
X74000000Y-116340000D02*
X74160000Y-116500000D01*
X89286000Y-132500000D02*
X87500000Y-132500000D01*
X77500000Y-113000000D02*
X77500000Y-116340000D01*
X77500000Y-116340000D02*
X77340000Y-116500000D01*
D23*
G36*
X99425000Y-149425000D02*
X50575000Y-149425000D01*
X50575000Y-147435687D01*
X50799619Y-147435687D01*
X51133843Y-148244572D01*
X51752173Y-148863982D01*
X52560473Y-149199618D01*
X53435687Y-149200381D01*
X54244572Y-148866157D01*
X54863982Y-148247827D01*
X55199618Y-147439527D01*
X55199621Y-147435687D01*
X94799619Y-147435687D01*
X95133843Y-148244572D01*
X95752173Y-148863982D01*
X96560473Y-149199618D01*
X97435687Y-149200381D01*
X98244572Y-148866157D01*
X98863982Y-148247827D01*
X99199618Y-147439527D01*
X99200381Y-146564313D01*
X98866157Y-145755428D01*
X98247827Y-145136018D01*
X97439527Y-144800382D01*
X96564313Y-144799619D01*
X95755428Y-145133843D01*
X95136018Y-145752173D01*
X94800382Y-146560473D01*
X94799619Y-147435687D01*
X55199621Y-147435687D01*
X55200381Y-146564313D01*
X54866157Y-145755428D01*
X54536306Y-145425000D01*
X55800000Y-145425000D01*
X55800000Y-146299456D01*
X55876121Y-146483227D01*
X56016773Y-146623880D01*
X56200544Y-146700000D01*
X57075000Y-146700000D01*
X57200000Y-146575000D01*
X57200000Y-145300000D01*
X57800000Y-145300000D01*
X57800000Y-146575000D01*
X57925000Y-146700000D01*
X58799456Y-146700000D01*
X58983227Y-146623880D01*
X59123879Y-146483227D01*
X59200000Y-146299456D01*
X59200000Y-145425000D01*
X59111667Y-145336667D01*
X59299706Y-145336667D01*
X59557970Y-145961715D01*
X60035770Y-146440350D01*
X60660366Y-146699704D01*
X61336667Y-146700294D01*
X61961715Y-146442030D01*
X62440350Y-145964230D01*
X62664257Y-145425000D01*
X63300000Y-145425000D01*
X63300000Y-146299456D01*
X63376121Y-146483227D01*
X63516773Y-146623880D01*
X63700544Y-146700000D01*
X64575000Y-146700000D01*
X64700000Y-146575000D01*
X64700000Y-145300000D01*
X65300000Y-145300000D01*
X65300000Y-146575000D01*
X65425000Y-146700000D01*
X66299456Y-146700000D01*
X66483227Y-146623880D01*
X66623879Y-146483227D01*
X66700000Y-146299456D01*
X66700000Y-145425000D01*
X66611667Y-145336667D01*
X66799706Y-145336667D01*
X67057970Y-145961715D01*
X67535770Y-146440350D01*
X68160366Y-146699704D01*
X68836667Y-146700294D01*
X69461715Y-146442030D01*
X69940350Y-145964230D01*
X70164257Y-145425000D01*
X70800000Y-145425000D01*
X70800000Y-146299456D01*
X70876121Y-146483227D01*
X71016773Y-146623880D01*
X71200544Y-146700000D01*
X72075000Y-146700000D01*
X72200000Y-146575000D01*
X72200000Y-145300000D01*
X72800000Y-145300000D01*
X72800000Y-146575000D01*
X72925000Y-146700000D01*
X73799456Y-146700000D01*
X73983227Y-146623880D01*
X74123879Y-146483227D01*
X74200000Y-146299456D01*
X74200000Y-145425000D01*
X74111667Y-145336667D01*
X74299706Y-145336667D01*
X74557970Y-145961715D01*
X75035770Y-146440350D01*
X75660366Y-146699704D01*
X76336667Y-146700294D01*
X76961715Y-146442030D01*
X77440350Y-145964230D01*
X77664257Y-145425000D01*
X78300000Y-145425000D01*
X78300000Y-146299456D01*
X78376121Y-146483227D01*
X78516773Y-146623880D01*
X78700544Y-146700000D01*
X79575000Y-146700000D01*
X79700000Y-146575000D01*
X79700000Y-145300000D01*
X80300000Y-145300000D01*
X80300000Y-146575000D01*
X80425000Y-146700000D01*
X81299456Y-146700000D01*
X81483227Y-146623880D01*
X81623879Y-146483227D01*
X81700000Y-146299456D01*
X81700000Y-145425000D01*
X81611667Y-145336667D01*
X81799706Y-145336667D01*
X82057970Y-145961715D01*
X82535770Y-146440350D01*
X83160366Y-146699704D01*
X83836667Y-146700294D01*
X84461715Y-146442030D01*
X84940350Y-145964230D01*
X85164257Y-145425000D01*
X87300000Y-145425000D01*
X87300000Y-146299456D01*
X87376121Y-146483227D01*
X87516773Y-146623880D01*
X87700544Y-146700000D01*
X88575000Y-146700000D01*
X88700000Y-146575000D01*
X88700000Y-145300000D01*
X89300000Y-145300000D01*
X89300000Y-146575000D01*
X89425000Y-146700000D01*
X90299456Y-146700000D01*
X90483227Y-146623880D01*
X90623879Y-146483227D01*
X90700000Y-146299456D01*
X90700000Y-145425000D01*
X90611667Y-145336667D01*
X90799706Y-145336667D01*
X91057970Y-145961715D01*
X91535770Y-146440350D01*
X92160366Y-146699704D01*
X92836667Y-146700294D01*
X93461715Y-146442030D01*
X93940350Y-145964230D01*
X94199704Y-145339634D01*
X94200294Y-144663333D01*
X93942030Y-144038285D01*
X93464230Y-143559650D01*
X92839634Y-143300296D01*
X92163333Y-143299706D01*
X91538285Y-143557970D01*
X91059650Y-144035770D01*
X90800296Y-144660366D01*
X90799706Y-145336667D01*
X90611667Y-145336667D01*
X90575000Y-145300000D01*
X89300000Y-145300000D01*
X88700000Y-145300000D01*
X87425000Y-145300000D01*
X87300000Y-145425000D01*
X85164257Y-145425000D01*
X85199704Y-145339634D01*
X85200294Y-144663333D01*
X84942030Y-144038285D01*
X84604879Y-143700544D01*
X87300000Y-143700544D01*
X87300000Y-144575000D01*
X87425000Y-144700000D01*
X88700000Y-144700000D01*
X88700000Y-143425000D01*
X89300000Y-143425000D01*
X89300000Y-144700000D01*
X90575000Y-144700000D01*
X90700000Y-144575000D01*
X90700000Y-143700544D01*
X90623879Y-143516773D01*
X90483227Y-143376120D01*
X90299456Y-143300000D01*
X89425000Y-143300000D01*
X89300000Y-143425000D01*
X88700000Y-143425000D01*
X88575000Y-143300000D01*
X87700544Y-143300000D01*
X87516773Y-143376120D01*
X87376121Y-143516773D01*
X87300000Y-143700544D01*
X84604879Y-143700544D01*
X84464230Y-143559650D01*
X83839634Y-143300296D01*
X83163333Y-143299706D01*
X82538285Y-143557970D01*
X82059650Y-144035770D01*
X81800296Y-144660366D01*
X81799706Y-145336667D01*
X81611667Y-145336667D01*
X81575000Y-145300000D01*
X80300000Y-145300000D01*
X79700000Y-145300000D01*
X78425000Y-145300000D01*
X78300000Y-145425000D01*
X77664257Y-145425000D01*
X77699704Y-145339634D01*
X77700294Y-144663333D01*
X77442030Y-144038285D01*
X77104879Y-143700544D01*
X78300000Y-143700544D01*
X78300000Y-144575000D01*
X78425000Y-144700000D01*
X79700000Y-144700000D01*
X79700000Y-143425000D01*
X80300000Y-143425000D01*
X80300000Y-144700000D01*
X81575000Y-144700000D01*
X81700000Y-144575000D01*
X81700000Y-143700544D01*
X81623879Y-143516773D01*
X81483227Y-143376120D01*
X81299456Y-143300000D01*
X80425000Y-143300000D01*
X80300000Y-143425000D01*
X79700000Y-143425000D01*
X79575000Y-143300000D01*
X78700544Y-143300000D01*
X78516773Y-143376120D01*
X78376121Y-143516773D01*
X78300000Y-143700544D01*
X77104879Y-143700544D01*
X76964230Y-143559650D01*
X76339634Y-143300296D01*
X75663333Y-143299706D01*
X75038285Y-143557970D01*
X74559650Y-144035770D01*
X74300296Y-144660366D01*
X74299706Y-145336667D01*
X74111667Y-145336667D01*
X74075000Y-145300000D01*
X72800000Y-145300000D01*
X72200000Y-145300000D01*
X70925000Y-145300000D01*
X70800000Y-145425000D01*
X70164257Y-145425000D01*
X70199704Y-145339634D01*
X70200294Y-144663333D01*
X69942030Y-144038285D01*
X69604879Y-143700544D01*
X70800000Y-143700544D01*
X70800000Y-144575000D01*
X70925000Y-144700000D01*
X72200000Y-144700000D01*
X72200000Y-143425000D01*
X72800000Y-143425000D01*
X72800000Y-144700000D01*
X74075000Y-144700000D01*
X74200000Y-144575000D01*
X74200000Y-143700544D01*
X74123879Y-143516773D01*
X73983227Y-143376120D01*
X73799456Y-143300000D01*
X72925000Y-143300000D01*
X72800000Y-143425000D01*
X72200000Y-143425000D01*
X72075000Y-143300000D01*
X71200544Y-143300000D01*
X71016773Y-143376120D01*
X70876121Y-143516773D01*
X70800000Y-143700544D01*
X69604879Y-143700544D01*
X69464230Y-143559650D01*
X68839634Y-143300296D01*
X68163333Y-143299706D01*
X67538285Y-143557970D01*
X67059650Y-144035770D01*
X66800296Y-144660366D01*
X66799706Y-145336667D01*
X66611667Y-145336667D01*
X66575000Y-145300000D01*
X65300000Y-145300000D01*
X64700000Y-145300000D01*
X63425000Y-145300000D01*
X63300000Y-145425000D01*
X62664257Y-145425000D01*
X62699704Y-145339634D01*
X62700294Y-144663333D01*
X62442030Y-144038285D01*
X62104879Y-143700544D01*
X63300000Y-143700544D01*
X63300000Y-144575000D01*
X63425000Y-144700000D01*
X64700000Y-144700000D01*
X64700000Y-143425000D01*
X65300000Y-143425000D01*
X65300000Y-144700000D01*
X66575000Y-144700000D01*
X66700000Y-144575000D01*
X66700000Y-143700544D01*
X66623879Y-143516773D01*
X66483227Y-143376120D01*
X66299456Y-143300000D01*
X65425000Y-143300000D01*
X65300000Y-143425000D01*
X64700000Y-143425000D01*
X64575000Y-143300000D01*
X63700544Y-143300000D01*
X63516773Y-143376120D01*
X63376121Y-143516773D01*
X63300000Y-143700544D01*
X62104879Y-143700544D01*
X61964230Y-143559650D01*
X61339634Y-143300296D01*
X60663333Y-143299706D01*
X60038285Y-143557970D01*
X59559650Y-144035770D01*
X59300296Y-144660366D01*
X59299706Y-145336667D01*
X59111667Y-145336667D01*
X59075000Y-145300000D01*
X57800000Y-145300000D01*
X57200000Y-145300000D01*
X55925000Y-145300000D01*
X55800000Y-145425000D01*
X54536306Y-145425000D01*
X54247827Y-145136018D01*
X53439527Y-144800382D01*
X52564313Y-144799619D01*
X51755428Y-145133843D01*
X51136018Y-145752173D01*
X50800382Y-146560473D01*
X50799619Y-147435687D01*
X50575000Y-147435687D01*
X50575000Y-143700544D01*
X55800000Y-143700544D01*
X55800000Y-144575000D01*
X55925000Y-144700000D01*
X57200000Y-144700000D01*
X57200000Y-143425000D01*
X57800000Y-143425000D01*
X57800000Y-144700000D01*
X59075000Y-144700000D01*
X59200000Y-144575000D01*
X59200000Y-143700544D01*
X59123879Y-143516773D01*
X58983227Y-143376120D01*
X58799456Y-143300000D01*
X57925000Y-143300000D01*
X57800000Y-143425000D01*
X57200000Y-143425000D01*
X57075000Y-143300000D01*
X56200544Y-143300000D01*
X56016773Y-143376120D01*
X55876121Y-143516773D01*
X55800000Y-143700544D01*
X50575000Y-143700544D01*
X50575000Y-137925000D01*
X54800000Y-137925000D01*
X54800000Y-138799456D01*
X54876121Y-138983227D01*
X55016773Y-139123880D01*
X55200544Y-139200000D01*
X56075000Y-139200000D01*
X56200000Y-139075000D01*
X56200000Y-137800000D01*
X56800000Y-137800000D01*
X56800000Y-139075000D01*
X56925000Y-139200000D01*
X57799456Y-139200000D01*
X57983227Y-139123880D01*
X58123879Y-138983227D01*
X58200000Y-138799456D01*
X58200000Y-137925000D01*
X92800000Y-137925000D01*
X92800000Y-138799456D01*
X92876121Y-138983227D01*
X93016773Y-139123880D01*
X93200544Y-139200000D01*
X94075000Y-139200000D01*
X94200000Y-139075000D01*
X94200000Y-137800000D01*
X94800000Y-137800000D01*
X94800000Y-139075000D01*
X94925000Y-139200000D01*
X95799456Y-139200000D01*
X95983227Y-139123880D01*
X96123879Y-138983227D01*
X96200000Y-138799456D01*
X96200000Y-137925000D01*
X96075000Y-137800000D01*
X94800000Y-137800000D01*
X94200000Y-137800000D01*
X92925000Y-137800000D01*
X92800000Y-137925000D01*
X58200000Y-137925000D01*
X58075000Y-137800000D01*
X56800000Y-137800000D01*
X56200000Y-137800000D01*
X54925000Y-137800000D01*
X54800000Y-137925000D01*
X50575000Y-137925000D01*
X50575000Y-136200544D01*
X54800000Y-136200544D01*
X54800000Y-137075000D01*
X54925000Y-137200000D01*
X56200000Y-137200000D01*
X56200000Y-135925000D01*
X56800000Y-135925000D01*
X56800000Y-137200000D01*
X58075000Y-137200000D01*
X58200000Y-137075000D01*
X58200000Y-136200544D01*
X92800000Y-136200544D01*
X92800000Y-137075000D01*
X92925000Y-137200000D01*
X94200000Y-137200000D01*
X94200000Y-135925000D01*
X94800000Y-135925000D01*
X94800000Y-137200000D01*
X96075000Y-137200000D01*
X96200000Y-137075000D01*
X96200000Y-136200544D01*
X96123879Y-136016773D01*
X95983227Y-135876120D01*
X95799456Y-135800000D01*
X94925000Y-135800000D01*
X94800000Y-135925000D01*
X94200000Y-135925000D01*
X94075000Y-135800000D01*
X93200544Y-135800000D01*
X93016773Y-135876120D01*
X92876121Y-136016773D01*
X92800000Y-136200544D01*
X58200000Y-136200544D01*
X58123879Y-136016773D01*
X57983227Y-135876120D01*
X57799456Y-135800000D01*
X56925000Y-135800000D01*
X56800000Y-135925000D01*
X56200000Y-135925000D01*
X56075000Y-135800000D01*
X55200544Y-135800000D01*
X55016773Y-135876120D01*
X54876121Y-136016773D01*
X54800000Y-136200544D01*
X50575000Y-136200544D01*
X50575000Y-131424360D01*
X61599570Y-131424360D01*
X61599570Y-132848876D01*
X61675690Y-133032647D01*
X61816343Y-133173299D01*
X62000114Y-133249420D01*
X62575000Y-133249420D01*
X62700000Y-133124420D01*
X62700000Y-131299360D01*
X63300000Y-131299360D01*
X63300000Y-133124420D01*
X63425000Y-133249420D01*
X63999886Y-133249420D01*
X64183657Y-133173299D01*
X64324310Y-133032647D01*
X64368898Y-132925000D01*
X66888500Y-132925000D01*
X66888500Y-134123456D01*
X66964621Y-134307227D01*
X67105273Y-134447880D01*
X67289044Y-134524000D01*
X67789000Y-134524000D01*
X67914000Y-134399000D01*
X67914000Y-132800000D01*
X68514000Y-132800000D01*
X68514000Y-134399000D01*
X68639000Y-134524000D01*
X69138956Y-134524000D01*
X69322727Y-134447880D01*
X69463379Y-134307227D01*
X69539500Y-134123456D01*
X69539500Y-132925000D01*
X69414500Y-132800000D01*
X68514000Y-132800000D01*
X67914000Y-132800000D01*
X67013500Y-132800000D01*
X66888500Y-132925000D01*
X64368898Y-132925000D01*
X64400430Y-132848876D01*
X64400430Y-131424360D01*
X64275430Y-131299360D01*
X63300000Y-131299360D01*
X62700000Y-131299360D01*
X61724570Y-131299360D01*
X61599570Y-131424360D01*
X50575000Y-131424360D01*
X50575000Y-130876544D01*
X66888500Y-130876544D01*
X66888500Y-132075000D01*
X67013500Y-132200000D01*
X67914000Y-132200000D01*
X67914000Y-130601000D01*
X68514000Y-130601000D01*
X68514000Y-132200000D01*
X69414500Y-132200000D01*
X69539500Y-132075000D01*
X69539500Y-130976000D01*
X71450705Y-130976000D01*
X71450705Y-134024000D01*
X71485569Y-134209289D01*
X71595075Y-134379465D01*
X71762161Y-134493630D01*
X71960500Y-134533795D01*
X73611500Y-134533795D01*
X73796789Y-134498931D01*
X73966965Y-134389425D01*
X74081130Y-134222339D01*
X74121295Y-134024000D01*
X74121295Y-132960579D01*
X75657514Y-131424360D01*
X78099570Y-131424360D01*
X78099570Y-132848876D01*
X78175690Y-133032647D01*
X78316343Y-133173299D01*
X78500114Y-133249420D01*
X79075000Y-133249420D01*
X79200000Y-133124420D01*
X79200000Y-131299360D01*
X79800000Y-131299360D01*
X79800000Y-133124420D01*
X79925000Y-133249420D01*
X80499886Y-133249420D01*
X80683657Y-133173299D01*
X80824310Y-133032647D01*
X80868898Y-132925000D01*
X83388500Y-132925000D01*
X83388500Y-134123456D01*
X83464621Y-134307227D01*
X83605273Y-134447880D01*
X83789044Y-134524000D01*
X84289000Y-134524000D01*
X84414000Y-134399000D01*
X84414000Y-132800000D01*
X85014000Y-132800000D01*
X85014000Y-134399000D01*
X85139000Y-134524000D01*
X85638956Y-134524000D01*
X85822727Y-134447880D01*
X85963379Y-134307227D01*
X86039500Y-134123456D01*
X86039500Y-132925000D01*
X85914500Y-132800000D01*
X85014000Y-132800000D01*
X84414000Y-132800000D01*
X83513500Y-132800000D01*
X83388500Y-132925000D01*
X80868898Y-132925000D01*
X80900430Y-132848876D01*
X80900430Y-132658432D01*
X86699861Y-132658432D01*
X86821397Y-132952572D01*
X87046245Y-133177812D01*
X87340172Y-133299861D01*
X87658432Y-133300139D01*
X87743475Y-133265000D01*
X87950705Y-133265000D01*
X87950705Y-134024000D01*
X87985569Y-134209289D01*
X88095075Y-134379465D01*
X88262161Y-134493630D01*
X88460500Y-134533795D01*
X90111500Y-134533795D01*
X90296789Y-134498931D01*
X90466965Y-134389425D01*
X90581130Y-134222339D01*
X90621295Y-134024000D01*
X90621295Y-130976000D01*
X90586431Y-130790711D01*
X90476925Y-130620535D01*
X90309839Y-130506370D01*
X90111500Y-130466205D01*
X88460500Y-130466205D01*
X88275211Y-130501069D01*
X88105035Y-130610575D01*
X87990870Y-130777661D01*
X87950705Y-130976000D01*
X87950705Y-131735000D01*
X87743783Y-131735000D01*
X87659828Y-131700139D01*
X87341568Y-131699861D01*
X87047428Y-131821397D01*
X86822188Y-132046245D01*
X86700139Y-132340172D01*
X86699861Y-132658432D01*
X80900430Y-132658432D01*
X80900430Y-131424360D01*
X80775430Y-131299360D01*
X79800000Y-131299360D01*
X79200000Y-131299360D01*
X78224570Y-131299360D01*
X78099570Y-131424360D01*
X75657514Y-131424360D01*
X76040937Y-131040937D01*
X76150780Y-130876544D01*
X83388500Y-130876544D01*
X83388500Y-132075000D01*
X83513500Y-132200000D01*
X84414000Y-132200000D01*
X84414000Y-130601000D01*
X85014000Y-130601000D01*
X85014000Y-132200000D01*
X85914500Y-132200000D01*
X86039500Y-132075000D01*
X86039500Y-130876544D01*
X85963379Y-130692773D01*
X85822727Y-130552120D01*
X85638956Y-130476000D01*
X85139000Y-130476000D01*
X85014000Y-130601000D01*
X84414000Y-130601000D01*
X84289000Y-130476000D01*
X83789044Y-130476000D01*
X83605273Y-130552120D01*
X83464621Y-130692773D01*
X83388500Y-130876544D01*
X76150780Y-130876544D01*
X76206768Y-130792753D01*
X76265000Y-130500000D01*
X76265000Y-129149844D01*
X78099570Y-129149844D01*
X78099570Y-130574360D01*
X78224570Y-130699360D01*
X79200000Y-130699360D01*
X79200000Y-128874300D01*
X79800000Y-128874300D01*
X79800000Y-130699360D01*
X80775430Y-130699360D01*
X80900430Y-130574360D01*
X80900430Y-129149844D01*
X80824310Y-128966073D01*
X80683657Y-128825421D01*
X80499886Y-128749300D01*
X79925000Y-128749300D01*
X79800000Y-128874300D01*
X79200000Y-128874300D01*
X79075000Y-128749300D01*
X78500114Y-128749300D01*
X78316343Y-128825421D01*
X78175690Y-128966073D01*
X78099570Y-129149844D01*
X76265000Y-129149844D01*
X76265000Y-124250580D01*
X78089775Y-124250580D01*
X78089775Y-127750700D01*
X78124639Y-127935989D01*
X78234145Y-128106165D01*
X78401231Y-128220330D01*
X78599570Y-128260495D01*
X80400430Y-128260495D01*
X80585719Y-128225631D01*
X80755895Y-128116125D01*
X80870060Y-127949039D01*
X80910225Y-127750700D01*
X80910225Y-127200640D01*
X83442205Y-127200640D01*
X83442205Y-129198000D01*
X83477069Y-129383289D01*
X83586575Y-129553465D01*
X83753661Y-129667630D01*
X83952000Y-129707795D01*
X90048000Y-129707795D01*
X90233289Y-129672931D01*
X90403465Y-129563425D01*
X90517630Y-129396339D01*
X90557795Y-129198000D01*
X90557795Y-123102000D01*
X90522931Y-122916711D01*
X90413425Y-122746535D01*
X90246339Y-122632370D01*
X90048000Y-122592205D01*
X89700000Y-122592205D01*
X89700000Y-121497056D01*
X90897056Y-120300000D01*
X92790205Y-120300000D01*
X92790205Y-122700000D01*
X92825069Y-122885289D01*
X92934575Y-123055465D01*
X93101661Y-123169630D01*
X93300000Y-123209795D01*
X95700000Y-123209795D01*
X95885289Y-123174931D01*
X96055465Y-123065425D01*
X96169630Y-122898339D01*
X96209795Y-122700000D01*
X96209795Y-120300000D01*
X96174931Y-120114711D01*
X96065425Y-119944535D01*
X95898339Y-119830370D01*
X95700000Y-119790205D01*
X93300000Y-119790205D01*
X93114711Y-119825069D01*
X92944535Y-119934575D01*
X92830370Y-120101661D01*
X92790205Y-120300000D01*
X90897056Y-120300000D01*
X94987261Y-116209795D01*
X96200000Y-116209795D01*
X96385289Y-116174931D01*
X96555465Y-116065425D01*
X96669630Y-115898339D01*
X96709795Y-115700000D01*
X96709795Y-113300000D01*
X96674931Y-113114711D01*
X96565425Y-112944535D01*
X96398339Y-112830370D01*
X96200000Y-112790205D01*
X93800000Y-112790205D01*
X93614711Y-112825069D01*
X93444535Y-112934575D01*
X93330370Y-113101661D01*
X93290205Y-113300000D01*
X93290205Y-114512739D01*
X87651472Y-120151472D01*
X87391345Y-120540780D01*
X87300000Y-121000000D01*
X87300000Y-122592205D01*
X83952000Y-122592205D01*
X83766711Y-122627069D01*
X83596535Y-122736575D01*
X83482370Y-122903661D01*
X83442205Y-123102000D01*
X83442205Y-124800640D01*
X80910225Y-124800640D01*
X80910225Y-124250580D01*
X80875361Y-124065291D01*
X80765855Y-123895115D01*
X80598769Y-123780950D01*
X80400430Y-123740785D01*
X78599570Y-123740785D01*
X78414281Y-123775649D01*
X78244105Y-123885155D01*
X78129940Y-124052241D01*
X78089775Y-124250580D01*
X76265000Y-124250580D01*
X76265000Y-117840000D01*
X76206768Y-117547247D01*
X76085508Y-117365769D01*
X76489498Y-117770465D01*
X77040424Y-117999229D01*
X77636958Y-117999750D01*
X78188283Y-117771947D01*
X78278502Y-117681885D01*
X86742379Y-117681885D01*
X86861529Y-117889169D01*
X87441742Y-118027757D01*
X88030824Y-117933758D01*
X88138471Y-117889169D01*
X88257621Y-117681885D01*
X87500000Y-116924264D01*
X86742379Y-117681885D01*
X78278502Y-117681885D01*
X78610465Y-117350502D01*
X78839229Y-116799576D01*
X78839541Y-116441742D01*
X85972243Y-116441742D01*
X86066242Y-117030824D01*
X86110831Y-117138471D01*
X86318115Y-117257621D01*
X87075736Y-116500000D01*
X87924264Y-116500000D01*
X88681885Y-117257621D01*
X88889169Y-117138471D01*
X89027757Y-116558258D01*
X88933758Y-115969176D01*
X88889169Y-115861529D01*
X88681885Y-115742379D01*
X87924264Y-116500000D01*
X87075736Y-116500000D01*
X86318115Y-115742379D01*
X86110831Y-115861529D01*
X85972243Y-116441742D01*
X78839541Y-116441742D01*
X78839750Y-116203042D01*
X78611947Y-115651717D01*
X78278928Y-115318115D01*
X86742379Y-115318115D01*
X87500000Y-116075736D01*
X88257621Y-115318115D01*
X88138471Y-115110831D01*
X87558258Y-114972243D01*
X86969176Y-115066242D01*
X86861529Y-115110831D01*
X86742379Y-115318115D01*
X78278928Y-115318115D01*
X78265000Y-115304163D01*
X78265000Y-114306359D01*
X78348283Y-114271947D01*
X78770465Y-113850502D01*
X78999229Y-113299576D01*
X78999231Y-113296958D01*
X86160250Y-113296958D01*
X86388053Y-113848283D01*
X86809498Y-114270465D01*
X87360424Y-114499229D01*
X87956958Y-114499750D01*
X88508283Y-114271947D01*
X88930465Y-113850502D01*
X89159229Y-113299576D01*
X89159750Y-112703042D01*
X88931947Y-112151717D01*
X88510502Y-111729535D01*
X87959576Y-111500771D01*
X87363042Y-111500250D01*
X86811717Y-111728053D01*
X86389535Y-112149498D01*
X86160771Y-112700424D01*
X86160250Y-113296958D01*
X78999231Y-113296958D01*
X78999750Y-112703042D01*
X78771947Y-112151717D01*
X78350502Y-111729535D01*
X77799576Y-111500771D01*
X77203042Y-111500250D01*
X76651717Y-111728053D01*
X76229535Y-112149498D01*
X76000771Y-112700424D01*
X76000250Y-113296958D01*
X76228053Y-113848283D01*
X76649498Y-114270465D01*
X76735000Y-114305968D01*
X76735000Y-115127530D01*
X76491717Y-115228053D01*
X76069535Y-115649498D01*
X75840771Y-116200424D01*
X75840250Y-116796958D01*
X76058700Y-117325648D01*
X76040937Y-117299063D01*
X75624672Y-116882798D01*
X75659229Y-116799576D01*
X75659750Y-116203042D01*
X75431947Y-115651717D01*
X75010502Y-115229535D01*
X74765000Y-115127594D01*
X74765000Y-114306359D01*
X74848283Y-114271947D01*
X75270465Y-113850502D01*
X75499229Y-113299576D01*
X75499750Y-112703042D01*
X75271947Y-112151717D01*
X74850502Y-111729535D01*
X74299576Y-111500771D01*
X73703042Y-111500250D01*
X73151717Y-111728053D01*
X72729535Y-112149498D01*
X72500771Y-112700424D01*
X72500250Y-113296958D01*
X72728053Y-113848283D01*
X73149498Y-114270465D01*
X73235000Y-114305968D01*
X73235000Y-115304636D01*
X72889535Y-115649498D01*
X72660771Y-116200424D01*
X72660250Y-116796958D01*
X72888053Y-117348283D01*
X73309498Y-117770465D01*
X73860424Y-117999229D01*
X74456958Y-117999750D01*
X74542522Y-117964396D01*
X74735000Y-118156874D01*
X74735000Y-130183126D01*
X74092921Y-130825205D01*
X74086431Y-130790711D01*
X73976925Y-130620535D01*
X73809839Y-130506370D01*
X73611500Y-130466205D01*
X71960500Y-130466205D01*
X71775211Y-130501069D01*
X71605035Y-130610575D01*
X71490870Y-130777661D01*
X71450705Y-130976000D01*
X69539500Y-130976000D01*
X69539500Y-130876544D01*
X69463379Y-130692773D01*
X69322727Y-130552120D01*
X69138956Y-130476000D01*
X68639000Y-130476000D01*
X68514000Y-130601000D01*
X67914000Y-130601000D01*
X67789000Y-130476000D01*
X67289044Y-130476000D01*
X67105273Y-130552120D01*
X66964621Y-130692773D01*
X66888500Y-130876544D01*
X50575000Y-130876544D01*
X50575000Y-129149844D01*
X61599570Y-129149844D01*
X61599570Y-130574360D01*
X61724570Y-130699360D01*
X62700000Y-130699360D01*
X62700000Y-128874300D01*
X63300000Y-128874300D01*
X63300000Y-130699360D01*
X64275430Y-130699360D01*
X64400430Y-130574360D01*
X64400430Y-129149844D01*
X64324310Y-128966073D01*
X64183657Y-128825421D01*
X63999886Y-128749300D01*
X63425000Y-128749300D01*
X63300000Y-128874300D01*
X62700000Y-128874300D01*
X62575000Y-128749300D01*
X62000114Y-128749300D01*
X61816343Y-128825421D01*
X61675690Y-128966073D01*
X61599570Y-129149844D01*
X50575000Y-129149844D01*
X50575000Y-120300000D01*
X54790205Y-120300000D01*
X54790205Y-122700000D01*
X54825069Y-122885289D01*
X54934575Y-123055465D01*
X55101661Y-123169630D01*
X55300000Y-123209795D01*
X57700000Y-123209795D01*
X57885289Y-123174931D01*
X58055465Y-123065425D01*
X58169630Y-122898339D01*
X58209795Y-122700000D01*
X58209795Y-120300000D01*
X58174931Y-120114711D01*
X58065425Y-119944535D01*
X57898339Y-119830370D01*
X57700000Y-119790205D01*
X55300000Y-119790205D01*
X55114711Y-119825069D01*
X54944535Y-119934575D01*
X54830370Y-120101661D01*
X54790205Y-120300000D01*
X50575000Y-120300000D01*
X50575000Y-114836667D01*
X53299706Y-114836667D01*
X53557970Y-115461715D01*
X54035770Y-115940350D01*
X54660366Y-116199704D01*
X55336667Y-116200294D01*
X55961715Y-115942030D01*
X56440350Y-115464230D01*
X56699704Y-114839634D01*
X56700294Y-114163333D01*
X56442030Y-113538285D01*
X55964230Y-113059650D01*
X55339634Y-112800296D01*
X54663333Y-112799706D01*
X54038285Y-113057970D01*
X53559650Y-113535770D01*
X53300296Y-114160366D01*
X53299706Y-114836667D01*
X50575000Y-114836667D01*
X50575000Y-109800000D01*
X53290205Y-109800000D01*
X53290205Y-112200000D01*
X53325069Y-112385289D01*
X53434575Y-112555465D01*
X53601661Y-112669630D01*
X53800000Y-112709795D01*
X56200000Y-112709795D01*
X56385289Y-112674931D01*
X56555465Y-112565425D01*
X56669630Y-112398339D01*
X56709795Y-112200000D01*
X57002944Y-112200000D01*
X58800000Y-113997056D01*
X58800000Y-121000000D01*
X58891345Y-121459220D01*
X59151472Y-121848528D01*
X61589775Y-124286831D01*
X61589775Y-127750700D01*
X61624639Y-127935989D01*
X61734145Y-128106165D01*
X61901231Y-128220330D01*
X62099570Y-128260495D01*
X63900430Y-128260495D01*
X64085719Y-128225631D01*
X64255895Y-128116125D01*
X64370060Y-127949039D01*
X64410225Y-127750700D01*
X64410225Y-127200640D01*
X66942205Y-127200640D01*
X66942205Y-129198000D01*
X66977069Y-129383289D01*
X67086575Y-129553465D01*
X67253661Y-129667630D01*
X67452000Y-129707795D01*
X73548000Y-129707795D01*
X73733289Y-129672931D01*
X73903465Y-129563425D01*
X74017630Y-129396339D01*
X74057795Y-129198000D01*
X74057795Y-123102000D01*
X74022931Y-122916711D01*
X73913425Y-122746535D01*
X73746339Y-122632370D01*
X73548000Y-122592205D01*
X67452000Y-122592205D01*
X67266711Y-122627069D01*
X67096535Y-122736575D01*
X66982370Y-122903661D01*
X66942205Y-123102000D01*
X66942205Y-124800640D01*
X64410225Y-124800640D01*
X64410225Y-124250580D01*
X64375361Y-124065291D01*
X64265855Y-123895115D01*
X64165497Y-123826543D01*
X64108655Y-123540780D01*
X63848528Y-123151472D01*
X61200000Y-120502944D01*
X61200000Y-117681885D01*
X63242379Y-117681885D01*
X63361529Y-117889169D01*
X63941742Y-118027757D01*
X64530824Y-117933758D01*
X64638471Y-117889169D01*
X64757621Y-117681885D01*
X64000000Y-116924264D01*
X63242379Y-117681885D01*
X61200000Y-117681885D01*
X61200000Y-116441742D01*
X62472243Y-116441742D01*
X62566242Y-117030824D01*
X62610831Y-117138471D01*
X62818115Y-117257621D01*
X63575736Y-116500000D01*
X64424264Y-116500000D01*
X65181885Y-117257621D01*
X65389169Y-117138471D01*
X65527757Y-116558258D01*
X65433758Y-115969176D01*
X65389169Y-115861529D01*
X65181885Y-115742379D01*
X64424264Y-116500000D01*
X63575736Y-116500000D01*
X62818115Y-115742379D01*
X62610831Y-115861529D01*
X62472243Y-116441742D01*
X61200000Y-116441742D01*
X61200000Y-115318115D01*
X63242379Y-115318115D01*
X64000000Y-116075736D01*
X64757621Y-115318115D01*
X64638471Y-115110831D01*
X64058258Y-114972243D01*
X63469176Y-115066242D01*
X63361529Y-115110831D01*
X63242379Y-115318115D01*
X61200000Y-115318115D01*
X61200000Y-113500000D01*
X61159613Y-113296958D01*
X62340250Y-113296958D01*
X62568053Y-113848283D01*
X62989498Y-114270465D01*
X63540424Y-114499229D01*
X64136958Y-114499750D01*
X64688283Y-114271947D01*
X65110465Y-113850502D01*
X65339229Y-113299576D01*
X65339750Y-112703042D01*
X65111947Y-112151717D01*
X64690502Y-111729535D01*
X64139576Y-111500771D01*
X63543042Y-111500250D01*
X62991717Y-111728053D01*
X62569535Y-112149498D01*
X62340771Y-112700424D01*
X62340250Y-113296958D01*
X61159613Y-113296958D01*
X61108655Y-113040780D01*
X60848528Y-112651472D01*
X59533723Y-111336667D01*
X93299706Y-111336667D01*
X93557970Y-111961715D01*
X94035770Y-112440350D01*
X94660366Y-112699704D01*
X95336667Y-112700294D01*
X95961715Y-112442030D01*
X96440350Y-111964230D01*
X96699704Y-111339634D01*
X96700294Y-110663333D01*
X96442030Y-110038285D01*
X95964230Y-109559650D01*
X95339634Y-109300296D01*
X94663333Y-109299706D01*
X94038285Y-109557970D01*
X93559650Y-110035770D01*
X93300296Y-110660366D01*
X93299706Y-111336667D01*
X59533723Y-111336667D01*
X58348528Y-110151472D01*
X57959220Y-109891345D01*
X57500000Y-109800000D01*
X56709795Y-109800000D01*
X56709223Y-109796958D01*
X62500250Y-109796958D01*
X62728053Y-110348283D01*
X63149498Y-110770465D01*
X63700424Y-110999229D01*
X64296958Y-110999750D01*
X64848283Y-110771947D01*
X65270465Y-110350502D01*
X65499229Y-109799576D01*
X65499231Y-109796958D01*
X72660250Y-109796958D01*
X72888053Y-110348283D01*
X73309498Y-110770465D01*
X73860424Y-110999229D01*
X74456958Y-110999750D01*
X75008283Y-110771947D01*
X75430465Y-110350502D01*
X75659229Y-109799576D01*
X75659231Y-109796958D01*
X76000250Y-109796958D01*
X76228053Y-110348283D01*
X76649498Y-110770465D01*
X77200424Y-110999229D01*
X77796958Y-110999750D01*
X78348283Y-110771947D01*
X78438502Y-110681885D01*
X86902379Y-110681885D01*
X87021529Y-110889169D01*
X87601742Y-111027757D01*
X88190824Y-110933758D01*
X88298471Y-110889169D01*
X88417621Y-110681885D01*
X87660000Y-109924264D01*
X86902379Y-110681885D01*
X78438502Y-110681885D01*
X78770465Y-110350502D01*
X78999229Y-109799576D01*
X78999541Y-109441742D01*
X86132243Y-109441742D01*
X86226242Y-110030824D01*
X86270831Y-110138471D01*
X86478115Y-110257621D01*
X87235736Y-109500000D01*
X88084264Y-109500000D01*
X88841885Y-110257621D01*
X89049169Y-110138471D01*
X89187757Y-109558258D01*
X89093758Y-108969176D01*
X89049169Y-108861529D01*
X88841885Y-108742379D01*
X88084264Y-109500000D01*
X87235736Y-109500000D01*
X86478115Y-108742379D01*
X86270831Y-108861529D01*
X86132243Y-109441742D01*
X78999541Y-109441742D01*
X78999750Y-109203042D01*
X78771947Y-108651717D01*
X78438928Y-108318115D01*
X86902379Y-108318115D01*
X87660000Y-109075736D01*
X88417621Y-108318115D01*
X88298471Y-108110831D01*
X87718258Y-107972243D01*
X87129176Y-108066242D01*
X87021529Y-108110831D01*
X86902379Y-108318115D01*
X78438928Y-108318115D01*
X78350502Y-108229535D01*
X77799576Y-108000771D01*
X77203042Y-108000250D01*
X76651717Y-108228053D01*
X76229535Y-108649498D01*
X76000771Y-109200424D01*
X76000250Y-109796958D01*
X75659231Y-109796958D01*
X75659750Y-109203042D01*
X75431947Y-108651717D01*
X75010502Y-108229535D01*
X74459576Y-108000771D01*
X73863042Y-108000250D01*
X73311717Y-108228053D01*
X72889535Y-108649498D01*
X72660771Y-109200424D01*
X72660250Y-109796958D01*
X65499231Y-109796958D01*
X65499750Y-109203042D01*
X65271947Y-108651717D01*
X64850502Y-108229535D01*
X64299576Y-108000771D01*
X63703042Y-108000250D01*
X63151717Y-108228053D01*
X62729535Y-108649498D01*
X62500771Y-109200424D01*
X62500250Y-109796958D01*
X56709223Y-109796958D01*
X56674931Y-109614711D01*
X56565425Y-109444535D01*
X56398339Y-109330370D01*
X56200000Y-109290205D01*
X53800000Y-109290205D01*
X53614711Y-109325069D01*
X53444535Y-109434575D01*
X53330370Y-109601661D01*
X53290205Y-109800000D01*
X50575000Y-109800000D01*
X50575000Y-103435687D01*
X50799619Y-103435687D01*
X51133843Y-104244572D01*
X51752173Y-104863982D01*
X52560473Y-105199618D01*
X53435687Y-105200381D01*
X54244572Y-104866157D01*
X54274113Y-104836667D01*
X56299706Y-104836667D01*
X56557970Y-105461715D01*
X57035770Y-105940350D01*
X57660366Y-106199704D01*
X58336667Y-106200294D01*
X58961715Y-105942030D01*
X59440350Y-105464230D01*
X59664257Y-104925000D01*
X59800000Y-104925000D01*
X59800000Y-105799456D01*
X59876121Y-105983227D01*
X60016773Y-106123880D01*
X60200544Y-106200000D01*
X61075000Y-106200000D01*
X61200000Y-106075000D01*
X61200000Y-104800000D01*
X61800000Y-104800000D01*
X61800000Y-106075000D01*
X61925000Y-106200000D01*
X62799456Y-106200000D01*
X62983227Y-106123880D01*
X63123879Y-105983227D01*
X63200000Y-105799456D01*
X63200000Y-104925000D01*
X63111667Y-104836667D01*
X86799706Y-104836667D01*
X87057970Y-105461715D01*
X87535770Y-105940350D01*
X88160366Y-106199704D01*
X88836667Y-106200294D01*
X89461715Y-105942030D01*
X89940350Y-105464230D01*
X90164257Y-104925000D01*
X90300000Y-104925000D01*
X90300000Y-105799456D01*
X90376121Y-105983227D01*
X90516773Y-106123880D01*
X90700544Y-106200000D01*
X91575000Y-106200000D01*
X91700000Y-106075000D01*
X91700000Y-104800000D01*
X92300000Y-104800000D01*
X92300000Y-106075000D01*
X92425000Y-106200000D01*
X93299456Y-106200000D01*
X93483227Y-106123880D01*
X93623879Y-105983227D01*
X93700000Y-105799456D01*
X93700000Y-104925000D01*
X93575000Y-104800000D01*
X92300000Y-104800000D01*
X91700000Y-104800000D01*
X90425000Y-104800000D01*
X90300000Y-104925000D01*
X90164257Y-104925000D01*
X90199704Y-104839634D01*
X90200294Y-104163333D01*
X89942030Y-103538285D01*
X89604879Y-103200544D01*
X90300000Y-103200544D01*
X90300000Y-104075000D01*
X90425000Y-104200000D01*
X91700000Y-104200000D01*
X91700000Y-102925000D01*
X92300000Y-102925000D01*
X92300000Y-104200000D01*
X93575000Y-104200000D01*
X93700000Y-104075000D01*
X93700000Y-103435687D01*
X94799619Y-103435687D01*
X95133843Y-104244572D01*
X95752173Y-104863982D01*
X96560473Y-105199618D01*
X97435687Y-105200381D01*
X98244572Y-104866157D01*
X98863982Y-104247827D01*
X99199618Y-103439527D01*
X99200381Y-102564313D01*
X98866157Y-101755428D01*
X98247827Y-101136018D01*
X97439527Y-100800382D01*
X96564313Y-100799619D01*
X95755428Y-101133843D01*
X95136018Y-101752173D01*
X94800382Y-102560473D01*
X94799619Y-103435687D01*
X93700000Y-103435687D01*
X93700000Y-103200544D01*
X93623879Y-103016773D01*
X93483227Y-102876120D01*
X93299456Y-102800000D01*
X92425000Y-102800000D01*
X92300000Y-102925000D01*
X91700000Y-102925000D01*
X91575000Y-102800000D01*
X90700544Y-102800000D01*
X90516773Y-102876120D01*
X90376121Y-103016773D01*
X90300000Y-103200544D01*
X89604879Y-103200544D01*
X89464230Y-103059650D01*
X88839634Y-102800296D01*
X88163333Y-102799706D01*
X87538285Y-103057970D01*
X87059650Y-103535770D01*
X86800296Y-104160366D01*
X86799706Y-104836667D01*
X63111667Y-104836667D01*
X63075000Y-104800000D01*
X61800000Y-104800000D01*
X61200000Y-104800000D01*
X59925000Y-104800000D01*
X59800000Y-104925000D01*
X59664257Y-104925000D01*
X59699704Y-104839634D01*
X59700294Y-104163333D01*
X59442030Y-103538285D01*
X59104879Y-103200544D01*
X59800000Y-103200544D01*
X59800000Y-104075000D01*
X59925000Y-104200000D01*
X61200000Y-104200000D01*
X61200000Y-102925000D01*
X61800000Y-102925000D01*
X61800000Y-104200000D01*
X63075000Y-104200000D01*
X63200000Y-104075000D01*
X63200000Y-103200544D01*
X63123879Y-103016773D01*
X62983227Y-102876120D01*
X62799456Y-102800000D01*
X61925000Y-102800000D01*
X61800000Y-102925000D01*
X61200000Y-102925000D01*
X61075000Y-102800000D01*
X60200544Y-102800000D01*
X60016773Y-102876120D01*
X59876121Y-103016773D01*
X59800000Y-103200544D01*
X59104879Y-103200544D01*
X58964230Y-103059650D01*
X58339634Y-102800296D01*
X57663333Y-102799706D01*
X57038285Y-103057970D01*
X56559650Y-103535770D01*
X56300296Y-104160366D01*
X56299706Y-104836667D01*
X54274113Y-104836667D01*
X54863982Y-104247827D01*
X55199618Y-103439527D01*
X55200381Y-102564313D01*
X54960601Y-101984000D01*
X68626605Y-101984000D01*
X68626605Y-104016000D01*
X68661469Y-104201289D01*
X68770975Y-104371465D01*
X68938061Y-104485630D01*
X69136400Y-104525795D01*
X70863600Y-104525795D01*
X71048889Y-104490931D01*
X71219065Y-104381425D01*
X71333230Y-104214339D01*
X71373395Y-104016000D01*
X71373395Y-103843406D01*
X71575789Y-104146311D01*
X72018173Y-104441902D01*
X72540000Y-104545700D01*
X73061827Y-104441902D01*
X73504211Y-104146311D01*
X73799802Y-103703927D01*
X73810000Y-103652658D01*
X73820198Y-103703927D01*
X74115789Y-104146311D01*
X74558173Y-104441902D01*
X75080000Y-104545700D01*
X75601827Y-104441902D01*
X76044211Y-104146311D01*
X76339802Y-103703927D01*
X76350000Y-103652658D01*
X76360198Y-103703927D01*
X76655789Y-104146311D01*
X77098173Y-104441902D01*
X77620000Y-104545700D01*
X78141827Y-104441902D01*
X78584211Y-104146311D01*
X78879802Y-103703927D01*
X78890000Y-103652658D01*
X78900198Y-103703927D01*
X79195789Y-104146311D01*
X79638173Y-104441902D01*
X80160000Y-104545700D01*
X80681827Y-104441902D01*
X81124211Y-104146311D01*
X81419802Y-103703927D01*
X81523600Y-103182100D01*
X81523600Y-102817900D01*
X81419802Y-102296073D01*
X81124211Y-101853689D01*
X80681827Y-101558098D01*
X80160000Y-101454300D01*
X79638173Y-101558098D01*
X79195789Y-101853689D01*
X78900198Y-102296073D01*
X78890000Y-102347342D01*
X78879802Y-102296073D01*
X78584211Y-101853689D01*
X78141827Y-101558098D01*
X77620000Y-101454300D01*
X77098173Y-101558098D01*
X76655789Y-101853689D01*
X76360198Y-102296073D01*
X76350000Y-102347342D01*
X76339802Y-102296073D01*
X76044211Y-101853689D01*
X75601827Y-101558098D01*
X75080000Y-101454300D01*
X74558173Y-101558098D01*
X74115789Y-101853689D01*
X73820198Y-102296073D01*
X73810000Y-102347342D01*
X73799802Y-102296073D01*
X73504211Y-101853689D01*
X73061827Y-101558098D01*
X72540000Y-101454300D01*
X72018173Y-101558098D01*
X71575789Y-101853689D01*
X71373395Y-102156594D01*
X71373395Y-101984000D01*
X71338531Y-101798711D01*
X71229025Y-101628535D01*
X71061939Y-101514370D01*
X70863600Y-101474205D01*
X69136400Y-101474205D01*
X68951111Y-101509069D01*
X68780935Y-101618575D01*
X68666770Y-101785661D01*
X68626605Y-101984000D01*
X54960601Y-101984000D01*
X54866157Y-101755428D01*
X54247827Y-101136018D01*
X53439527Y-100800382D01*
X52564313Y-100799619D01*
X51755428Y-101133843D01*
X51136018Y-101752173D01*
X50800382Y-102560473D01*
X50799619Y-103435687D01*
X50575000Y-103435687D01*
X50575000Y-100575000D01*
X99425000Y-100575000D01*
X99425000Y-149425000D01*
X99425000Y-149425000D01*
G37*
X99425000Y-149425000D02*
X50575000Y-149425000D01*
X50575000Y-147435687D01*
X50799619Y-147435687D01*
X51133843Y-148244572D01*
X51752173Y-148863982D01*
X52560473Y-149199618D01*
X53435687Y-149200381D01*
X54244572Y-148866157D01*
X54863982Y-148247827D01*
X55199618Y-147439527D01*
X55199621Y-147435687D01*
X94799619Y-147435687D01*
X95133843Y-148244572D01*
X95752173Y-148863982D01*
X96560473Y-149199618D01*
X97435687Y-149200381D01*
X98244572Y-148866157D01*
X98863982Y-148247827D01*
X99199618Y-147439527D01*
X99200381Y-146564313D01*
X98866157Y-145755428D01*
X98247827Y-145136018D01*
X97439527Y-144800382D01*
X96564313Y-144799619D01*
X95755428Y-145133843D01*
X95136018Y-145752173D01*
X94800382Y-146560473D01*
X94799619Y-147435687D01*
X55199621Y-147435687D01*
X55200381Y-146564313D01*
X54866157Y-145755428D01*
X54536306Y-145425000D01*
X55800000Y-145425000D01*
X55800000Y-146299456D01*
X55876121Y-146483227D01*
X56016773Y-146623880D01*
X56200544Y-146700000D01*
X57075000Y-146700000D01*
X57200000Y-146575000D01*
X57200000Y-145300000D01*
X57800000Y-145300000D01*
X57800000Y-146575000D01*
X57925000Y-146700000D01*
X58799456Y-146700000D01*
X58983227Y-146623880D01*
X59123879Y-146483227D01*
X59200000Y-146299456D01*
X59200000Y-145425000D01*
X59111667Y-145336667D01*
X59299706Y-145336667D01*
X59557970Y-145961715D01*
X60035770Y-146440350D01*
X60660366Y-146699704D01*
X61336667Y-146700294D01*
X61961715Y-146442030D01*
X62440350Y-145964230D01*
X62664257Y-145425000D01*
X63300000Y-145425000D01*
X63300000Y-146299456D01*
X63376121Y-146483227D01*
X63516773Y-146623880D01*
X63700544Y-146700000D01*
X64575000Y-146700000D01*
X64700000Y-146575000D01*
X64700000Y-145300000D01*
X65300000Y-145300000D01*
X65300000Y-146575000D01*
X65425000Y-146700000D01*
X66299456Y-146700000D01*
X66483227Y-146623880D01*
X66623879Y-146483227D01*
X66700000Y-146299456D01*
X66700000Y-145425000D01*
X66611667Y-145336667D01*
X66799706Y-145336667D01*
X67057970Y-145961715D01*
X67535770Y-146440350D01*
X68160366Y-146699704D01*
X68836667Y-146700294D01*
X69461715Y-146442030D01*
X69940350Y-145964230D01*
X70164257Y-145425000D01*
X70800000Y-145425000D01*
X70800000Y-146299456D01*
X70876121Y-146483227D01*
X71016773Y-146623880D01*
X71200544Y-146700000D01*
X72075000Y-146700000D01*
X72200000Y-146575000D01*
X72200000Y-145300000D01*
X72800000Y-145300000D01*
X72800000Y-146575000D01*
X72925000Y-146700000D01*
X73799456Y-146700000D01*
X73983227Y-146623880D01*
X74123879Y-146483227D01*
X74200000Y-146299456D01*
X74200000Y-145425000D01*
X74111667Y-145336667D01*
X74299706Y-145336667D01*
X74557970Y-145961715D01*
X75035770Y-146440350D01*
X75660366Y-146699704D01*
X76336667Y-146700294D01*
X76961715Y-146442030D01*
X77440350Y-145964230D01*
X77664257Y-145425000D01*
X78300000Y-145425000D01*
X78300000Y-146299456D01*
X78376121Y-146483227D01*
X78516773Y-146623880D01*
X78700544Y-146700000D01*
X79575000Y-146700000D01*
X79700000Y-146575000D01*
X79700000Y-145300000D01*
X80300000Y-145300000D01*
X80300000Y-146575000D01*
X80425000Y-146700000D01*
X81299456Y-146700000D01*
X81483227Y-146623880D01*
X81623879Y-146483227D01*
X81700000Y-146299456D01*
X81700000Y-145425000D01*
X81611667Y-145336667D01*
X81799706Y-145336667D01*
X82057970Y-145961715D01*
X82535770Y-146440350D01*
X83160366Y-146699704D01*
X83836667Y-146700294D01*
X84461715Y-146442030D01*
X84940350Y-145964230D01*
X85164257Y-145425000D01*
X87300000Y-145425000D01*
X87300000Y-146299456D01*
X87376121Y-146483227D01*
X87516773Y-146623880D01*
X87700544Y-146700000D01*
X88575000Y-146700000D01*
X88700000Y-146575000D01*
X88700000Y-145300000D01*
X89300000Y-145300000D01*
X89300000Y-146575000D01*
X89425000Y-146700000D01*
X90299456Y-146700000D01*
X90483227Y-146623880D01*
X90623879Y-146483227D01*
X90700000Y-146299456D01*
X90700000Y-145425000D01*
X90611667Y-145336667D01*
X90799706Y-145336667D01*
X91057970Y-145961715D01*
X91535770Y-146440350D01*
X92160366Y-146699704D01*
X92836667Y-146700294D01*
X93461715Y-146442030D01*
X93940350Y-145964230D01*
X94199704Y-145339634D01*
X94200294Y-144663333D01*
X93942030Y-144038285D01*
X93464230Y-143559650D01*
X92839634Y-143300296D01*
X92163333Y-143299706D01*
X91538285Y-143557970D01*
X91059650Y-144035770D01*
X90800296Y-144660366D01*
X90799706Y-145336667D01*
X90611667Y-145336667D01*
X90575000Y-145300000D01*
X89300000Y-145300000D01*
X88700000Y-145300000D01*
X87425000Y-145300000D01*
X87300000Y-145425000D01*
X85164257Y-145425000D01*
X85199704Y-145339634D01*
X85200294Y-144663333D01*
X84942030Y-144038285D01*
X84604879Y-143700544D01*
X87300000Y-143700544D01*
X87300000Y-144575000D01*
X87425000Y-144700000D01*
X88700000Y-144700000D01*
X88700000Y-143425000D01*
X89300000Y-143425000D01*
X89300000Y-144700000D01*
X90575000Y-144700000D01*
X90700000Y-144575000D01*
X90700000Y-143700544D01*
X90623879Y-143516773D01*
X90483227Y-143376120D01*
X90299456Y-143300000D01*
X89425000Y-143300000D01*
X89300000Y-143425000D01*
X88700000Y-143425000D01*
X88575000Y-143300000D01*
X87700544Y-143300000D01*
X87516773Y-143376120D01*
X87376121Y-143516773D01*
X87300000Y-143700544D01*
X84604879Y-143700544D01*
X84464230Y-143559650D01*
X83839634Y-143300296D01*
X83163333Y-143299706D01*
X82538285Y-143557970D01*
X82059650Y-144035770D01*
X81800296Y-144660366D01*
X81799706Y-145336667D01*
X81611667Y-145336667D01*
X81575000Y-145300000D01*
X80300000Y-145300000D01*
X79700000Y-145300000D01*
X78425000Y-145300000D01*
X78300000Y-145425000D01*
X77664257Y-145425000D01*
X77699704Y-145339634D01*
X77700294Y-144663333D01*
X77442030Y-144038285D01*
X77104879Y-143700544D01*
X78300000Y-143700544D01*
X78300000Y-144575000D01*
X78425000Y-144700000D01*
X79700000Y-144700000D01*
X79700000Y-143425000D01*
X80300000Y-143425000D01*
X80300000Y-144700000D01*
X81575000Y-144700000D01*
X81700000Y-144575000D01*
X81700000Y-143700544D01*
X81623879Y-143516773D01*
X81483227Y-143376120D01*
X81299456Y-143300000D01*
X80425000Y-143300000D01*
X80300000Y-143425000D01*
X79700000Y-143425000D01*
X79575000Y-143300000D01*
X78700544Y-143300000D01*
X78516773Y-143376120D01*
X78376121Y-143516773D01*
X78300000Y-143700544D01*
X77104879Y-143700544D01*
X76964230Y-143559650D01*
X76339634Y-143300296D01*
X75663333Y-143299706D01*
X75038285Y-143557970D01*
X74559650Y-144035770D01*
X74300296Y-144660366D01*
X74299706Y-145336667D01*
X74111667Y-145336667D01*
X74075000Y-145300000D01*
X72800000Y-145300000D01*
X72200000Y-145300000D01*
X70925000Y-145300000D01*
X70800000Y-145425000D01*
X70164257Y-145425000D01*
X70199704Y-145339634D01*
X70200294Y-144663333D01*
X69942030Y-144038285D01*
X69604879Y-143700544D01*
X70800000Y-143700544D01*
X70800000Y-144575000D01*
X70925000Y-144700000D01*
X72200000Y-144700000D01*
X72200000Y-143425000D01*
X72800000Y-143425000D01*
X72800000Y-144700000D01*
X74075000Y-144700000D01*
X74200000Y-144575000D01*
X74200000Y-143700544D01*
X74123879Y-143516773D01*
X73983227Y-143376120D01*
X73799456Y-143300000D01*
X72925000Y-143300000D01*
X72800000Y-143425000D01*
X72200000Y-143425000D01*
X72075000Y-143300000D01*
X71200544Y-143300000D01*
X71016773Y-143376120D01*
X70876121Y-143516773D01*
X70800000Y-143700544D01*
X69604879Y-143700544D01*
X69464230Y-143559650D01*
X68839634Y-143300296D01*
X68163333Y-143299706D01*
X67538285Y-143557970D01*
X67059650Y-144035770D01*
X66800296Y-144660366D01*
X66799706Y-145336667D01*
X66611667Y-145336667D01*
X66575000Y-145300000D01*
X65300000Y-145300000D01*
X64700000Y-145300000D01*
X63425000Y-145300000D01*
X63300000Y-145425000D01*
X62664257Y-145425000D01*
X62699704Y-145339634D01*
X62700294Y-144663333D01*
X62442030Y-144038285D01*
X62104879Y-143700544D01*
X63300000Y-143700544D01*
X63300000Y-144575000D01*
X63425000Y-144700000D01*
X64700000Y-144700000D01*
X64700000Y-143425000D01*
X65300000Y-143425000D01*
X65300000Y-144700000D01*
X66575000Y-144700000D01*
X66700000Y-144575000D01*
X66700000Y-143700544D01*
X66623879Y-143516773D01*
X66483227Y-143376120D01*
X66299456Y-143300000D01*
X65425000Y-143300000D01*
X65300000Y-143425000D01*
X64700000Y-143425000D01*
X64575000Y-143300000D01*
X63700544Y-143300000D01*
X63516773Y-143376120D01*
X63376121Y-143516773D01*
X63300000Y-143700544D01*
X62104879Y-143700544D01*
X61964230Y-143559650D01*
X61339634Y-143300296D01*
X60663333Y-143299706D01*
X60038285Y-143557970D01*
X59559650Y-144035770D01*
X59300296Y-144660366D01*
X59299706Y-145336667D01*
X59111667Y-145336667D01*
X59075000Y-145300000D01*
X57800000Y-145300000D01*
X57200000Y-145300000D01*
X55925000Y-145300000D01*
X55800000Y-145425000D01*
X54536306Y-145425000D01*
X54247827Y-145136018D01*
X53439527Y-144800382D01*
X52564313Y-144799619D01*
X51755428Y-145133843D01*
X51136018Y-145752173D01*
X50800382Y-146560473D01*
X50799619Y-147435687D01*
X50575000Y-147435687D01*
X50575000Y-143700544D01*
X55800000Y-143700544D01*
X55800000Y-144575000D01*
X55925000Y-144700000D01*
X57200000Y-144700000D01*
X57200000Y-143425000D01*
X57800000Y-143425000D01*
X57800000Y-144700000D01*
X59075000Y-144700000D01*
X59200000Y-144575000D01*
X59200000Y-143700544D01*
X59123879Y-143516773D01*
X58983227Y-143376120D01*
X58799456Y-143300000D01*
X57925000Y-143300000D01*
X57800000Y-143425000D01*
X57200000Y-143425000D01*
X57075000Y-143300000D01*
X56200544Y-143300000D01*
X56016773Y-143376120D01*
X55876121Y-143516773D01*
X55800000Y-143700544D01*
X50575000Y-143700544D01*
X50575000Y-137925000D01*
X54800000Y-137925000D01*
X54800000Y-138799456D01*
X54876121Y-138983227D01*
X55016773Y-139123880D01*
X55200544Y-139200000D01*
X56075000Y-139200000D01*
X56200000Y-139075000D01*
X56200000Y-137800000D01*
X56800000Y-137800000D01*
X56800000Y-139075000D01*
X56925000Y-139200000D01*
X57799456Y-139200000D01*
X57983227Y-139123880D01*
X58123879Y-138983227D01*
X58200000Y-138799456D01*
X58200000Y-137925000D01*
X92800000Y-137925000D01*
X92800000Y-138799456D01*
X92876121Y-138983227D01*
X93016773Y-139123880D01*
X93200544Y-139200000D01*
X94075000Y-139200000D01*
X94200000Y-139075000D01*
X94200000Y-137800000D01*
X94800000Y-137800000D01*
X94800000Y-139075000D01*
X94925000Y-139200000D01*
X95799456Y-139200000D01*
X95983227Y-139123880D01*
X96123879Y-138983227D01*
X96200000Y-138799456D01*
X96200000Y-137925000D01*
X96075000Y-137800000D01*
X94800000Y-137800000D01*
X94200000Y-137800000D01*
X92925000Y-137800000D01*
X92800000Y-137925000D01*
X58200000Y-137925000D01*
X58075000Y-137800000D01*
X56800000Y-137800000D01*
X56200000Y-137800000D01*
X54925000Y-137800000D01*
X54800000Y-137925000D01*
X50575000Y-137925000D01*
X50575000Y-136200544D01*
X54800000Y-136200544D01*
X54800000Y-137075000D01*
X54925000Y-137200000D01*
X56200000Y-137200000D01*
X56200000Y-135925000D01*
X56800000Y-135925000D01*
X56800000Y-137200000D01*
X58075000Y-137200000D01*
X58200000Y-137075000D01*
X58200000Y-136200544D01*
X92800000Y-136200544D01*
X92800000Y-137075000D01*
X92925000Y-137200000D01*
X94200000Y-137200000D01*
X94200000Y-135925000D01*
X94800000Y-135925000D01*
X94800000Y-137200000D01*
X96075000Y-137200000D01*
X96200000Y-137075000D01*
X96200000Y-136200544D01*
X96123879Y-136016773D01*
X95983227Y-135876120D01*
X95799456Y-135800000D01*
X94925000Y-135800000D01*
X94800000Y-135925000D01*
X94200000Y-135925000D01*
X94075000Y-135800000D01*
X93200544Y-135800000D01*
X93016773Y-135876120D01*
X92876121Y-136016773D01*
X92800000Y-136200544D01*
X58200000Y-136200544D01*
X58123879Y-136016773D01*
X57983227Y-135876120D01*
X57799456Y-135800000D01*
X56925000Y-135800000D01*
X56800000Y-135925000D01*
X56200000Y-135925000D01*
X56075000Y-135800000D01*
X55200544Y-135800000D01*
X55016773Y-135876120D01*
X54876121Y-136016773D01*
X54800000Y-136200544D01*
X50575000Y-136200544D01*
X50575000Y-131424360D01*
X61599570Y-131424360D01*
X61599570Y-132848876D01*
X61675690Y-133032647D01*
X61816343Y-133173299D01*
X62000114Y-133249420D01*
X62575000Y-133249420D01*
X62700000Y-133124420D01*
X62700000Y-131299360D01*
X63300000Y-131299360D01*
X63300000Y-133124420D01*
X63425000Y-133249420D01*
X63999886Y-133249420D01*
X64183657Y-133173299D01*
X64324310Y-133032647D01*
X64368898Y-132925000D01*
X66888500Y-132925000D01*
X66888500Y-134123456D01*
X66964621Y-134307227D01*
X67105273Y-134447880D01*
X67289044Y-134524000D01*
X67789000Y-134524000D01*
X67914000Y-134399000D01*
X67914000Y-132800000D01*
X68514000Y-132800000D01*
X68514000Y-134399000D01*
X68639000Y-134524000D01*
X69138956Y-134524000D01*
X69322727Y-134447880D01*
X69463379Y-134307227D01*
X69539500Y-134123456D01*
X69539500Y-132925000D01*
X69414500Y-132800000D01*
X68514000Y-132800000D01*
X67914000Y-132800000D01*
X67013500Y-132800000D01*
X66888500Y-132925000D01*
X64368898Y-132925000D01*
X64400430Y-132848876D01*
X64400430Y-131424360D01*
X64275430Y-131299360D01*
X63300000Y-131299360D01*
X62700000Y-131299360D01*
X61724570Y-131299360D01*
X61599570Y-131424360D01*
X50575000Y-131424360D01*
X50575000Y-130876544D01*
X66888500Y-130876544D01*
X66888500Y-132075000D01*
X67013500Y-132200000D01*
X67914000Y-132200000D01*
X67914000Y-130601000D01*
X68514000Y-130601000D01*
X68514000Y-132200000D01*
X69414500Y-132200000D01*
X69539500Y-132075000D01*
X69539500Y-130976000D01*
X71450705Y-130976000D01*
X71450705Y-134024000D01*
X71485569Y-134209289D01*
X71595075Y-134379465D01*
X71762161Y-134493630D01*
X71960500Y-134533795D01*
X73611500Y-134533795D01*
X73796789Y-134498931D01*
X73966965Y-134389425D01*
X74081130Y-134222339D01*
X74121295Y-134024000D01*
X74121295Y-132960579D01*
X75657514Y-131424360D01*
X78099570Y-131424360D01*
X78099570Y-132848876D01*
X78175690Y-133032647D01*
X78316343Y-133173299D01*
X78500114Y-133249420D01*
X79075000Y-133249420D01*
X79200000Y-133124420D01*
X79200000Y-131299360D01*
X79800000Y-131299360D01*
X79800000Y-133124420D01*
X79925000Y-133249420D01*
X80499886Y-133249420D01*
X80683657Y-133173299D01*
X80824310Y-133032647D01*
X80868898Y-132925000D01*
X83388500Y-132925000D01*
X83388500Y-134123456D01*
X83464621Y-134307227D01*
X83605273Y-134447880D01*
X83789044Y-134524000D01*
X84289000Y-134524000D01*
X84414000Y-134399000D01*
X84414000Y-132800000D01*
X85014000Y-132800000D01*
X85014000Y-134399000D01*
X85139000Y-134524000D01*
X85638956Y-134524000D01*
X85822727Y-134447880D01*
X85963379Y-134307227D01*
X86039500Y-134123456D01*
X86039500Y-132925000D01*
X85914500Y-132800000D01*
X85014000Y-132800000D01*
X84414000Y-132800000D01*
X83513500Y-132800000D01*
X83388500Y-132925000D01*
X80868898Y-132925000D01*
X80900430Y-132848876D01*
X80900430Y-132658432D01*
X86699861Y-132658432D01*
X86821397Y-132952572D01*
X87046245Y-133177812D01*
X87340172Y-133299861D01*
X87658432Y-133300139D01*
X87743475Y-133265000D01*
X87950705Y-133265000D01*
X87950705Y-134024000D01*
X87985569Y-134209289D01*
X88095075Y-134379465D01*
X88262161Y-134493630D01*
X88460500Y-134533795D01*
X90111500Y-134533795D01*
X90296789Y-134498931D01*
X90466965Y-134389425D01*
X90581130Y-134222339D01*
X90621295Y-134024000D01*
X90621295Y-130976000D01*
X90586431Y-130790711D01*
X90476925Y-130620535D01*
X90309839Y-130506370D01*
X90111500Y-130466205D01*
X88460500Y-130466205D01*
X88275211Y-130501069D01*
X88105035Y-130610575D01*
X87990870Y-130777661D01*
X87950705Y-130976000D01*
X87950705Y-131735000D01*
X87743783Y-131735000D01*
X87659828Y-131700139D01*
X87341568Y-131699861D01*
X87047428Y-131821397D01*
X86822188Y-132046245D01*
X86700139Y-132340172D01*
X86699861Y-132658432D01*
X80900430Y-132658432D01*
X80900430Y-131424360D01*
X80775430Y-131299360D01*
X79800000Y-131299360D01*
X79200000Y-131299360D01*
X78224570Y-131299360D01*
X78099570Y-131424360D01*
X75657514Y-131424360D01*
X76040937Y-131040937D01*
X76150780Y-130876544D01*
X83388500Y-130876544D01*
X83388500Y-132075000D01*
X83513500Y-132200000D01*
X84414000Y-132200000D01*
X84414000Y-130601000D01*
X85014000Y-130601000D01*
X85014000Y-132200000D01*
X85914500Y-132200000D01*
X86039500Y-132075000D01*
X86039500Y-130876544D01*
X85963379Y-130692773D01*
X85822727Y-130552120D01*
X85638956Y-130476000D01*
X85139000Y-130476000D01*
X85014000Y-130601000D01*
X84414000Y-130601000D01*
X84289000Y-130476000D01*
X83789044Y-130476000D01*
X83605273Y-130552120D01*
X83464621Y-130692773D01*
X83388500Y-130876544D01*
X76150780Y-130876544D01*
X76206768Y-130792753D01*
X76265000Y-130500000D01*
X76265000Y-129149844D01*
X78099570Y-129149844D01*
X78099570Y-130574360D01*
X78224570Y-130699360D01*
X79200000Y-130699360D01*
X79200000Y-128874300D01*
X79800000Y-128874300D01*
X79800000Y-130699360D01*
X80775430Y-130699360D01*
X80900430Y-130574360D01*
X80900430Y-129149844D01*
X80824310Y-128966073D01*
X80683657Y-128825421D01*
X80499886Y-128749300D01*
X79925000Y-128749300D01*
X79800000Y-128874300D01*
X79200000Y-128874300D01*
X79075000Y-128749300D01*
X78500114Y-128749300D01*
X78316343Y-128825421D01*
X78175690Y-128966073D01*
X78099570Y-129149844D01*
X76265000Y-129149844D01*
X76265000Y-124250580D01*
X78089775Y-124250580D01*
X78089775Y-127750700D01*
X78124639Y-127935989D01*
X78234145Y-128106165D01*
X78401231Y-128220330D01*
X78599570Y-128260495D01*
X80400430Y-128260495D01*
X80585719Y-128225631D01*
X80755895Y-128116125D01*
X80870060Y-127949039D01*
X80910225Y-127750700D01*
X80910225Y-127200640D01*
X83442205Y-127200640D01*
X83442205Y-129198000D01*
X83477069Y-129383289D01*
X83586575Y-129553465D01*
X83753661Y-129667630D01*
X83952000Y-129707795D01*
X90048000Y-129707795D01*
X90233289Y-129672931D01*
X90403465Y-129563425D01*
X90517630Y-129396339D01*
X90557795Y-129198000D01*
X90557795Y-123102000D01*
X90522931Y-122916711D01*
X90413425Y-122746535D01*
X90246339Y-122632370D01*
X90048000Y-122592205D01*
X89700000Y-122592205D01*
X89700000Y-121497056D01*
X90897056Y-120300000D01*
X92790205Y-120300000D01*
X92790205Y-122700000D01*
X92825069Y-122885289D01*
X92934575Y-123055465D01*
X93101661Y-123169630D01*
X93300000Y-123209795D01*
X95700000Y-123209795D01*
X95885289Y-123174931D01*
X96055465Y-123065425D01*
X96169630Y-122898339D01*
X96209795Y-122700000D01*
X96209795Y-120300000D01*
X96174931Y-120114711D01*
X96065425Y-119944535D01*
X95898339Y-119830370D01*
X95700000Y-119790205D01*
X93300000Y-119790205D01*
X93114711Y-119825069D01*
X92944535Y-119934575D01*
X92830370Y-120101661D01*
X92790205Y-120300000D01*
X90897056Y-120300000D01*
X94987261Y-116209795D01*
X96200000Y-116209795D01*
X96385289Y-116174931D01*
X96555465Y-116065425D01*
X96669630Y-115898339D01*
X96709795Y-115700000D01*
X96709795Y-113300000D01*
X96674931Y-113114711D01*
X96565425Y-112944535D01*
X96398339Y-112830370D01*
X96200000Y-112790205D01*
X93800000Y-112790205D01*
X93614711Y-112825069D01*
X93444535Y-112934575D01*
X93330370Y-113101661D01*
X93290205Y-113300000D01*
X93290205Y-114512739D01*
X87651472Y-120151472D01*
X87391345Y-120540780D01*
X87300000Y-121000000D01*
X87300000Y-122592205D01*
X83952000Y-122592205D01*
X83766711Y-122627069D01*
X83596535Y-122736575D01*
X83482370Y-122903661D01*
X83442205Y-123102000D01*
X83442205Y-124800640D01*
X80910225Y-124800640D01*
X80910225Y-124250580D01*
X80875361Y-124065291D01*
X80765855Y-123895115D01*
X80598769Y-123780950D01*
X80400430Y-123740785D01*
X78599570Y-123740785D01*
X78414281Y-123775649D01*
X78244105Y-123885155D01*
X78129940Y-124052241D01*
X78089775Y-124250580D01*
X76265000Y-124250580D01*
X76265000Y-117840000D01*
X76206768Y-117547247D01*
X76085508Y-117365769D01*
X76489498Y-117770465D01*
X77040424Y-117999229D01*
X77636958Y-117999750D01*
X78188283Y-117771947D01*
X78278502Y-117681885D01*
X86742379Y-117681885D01*
X86861529Y-117889169D01*
X87441742Y-118027757D01*
X88030824Y-117933758D01*
X88138471Y-117889169D01*
X88257621Y-117681885D01*
X87500000Y-116924264D01*
X86742379Y-117681885D01*
X78278502Y-117681885D01*
X78610465Y-117350502D01*
X78839229Y-116799576D01*
X78839541Y-116441742D01*
X85972243Y-116441742D01*
X86066242Y-117030824D01*
X86110831Y-117138471D01*
X86318115Y-117257621D01*
X87075736Y-116500000D01*
X87924264Y-116500000D01*
X88681885Y-117257621D01*
X88889169Y-117138471D01*
X89027757Y-116558258D01*
X88933758Y-115969176D01*
X88889169Y-115861529D01*
X88681885Y-115742379D01*
X87924264Y-116500000D01*
X87075736Y-116500000D01*
X86318115Y-115742379D01*
X86110831Y-115861529D01*
X85972243Y-116441742D01*
X78839541Y-116441742D01*
X78839750Y-116203042D01*
X78611947Y-115651717D01*
X78278928Y-115318115D01*
X86742379Y-115318115D01*
X87500000Y-116075736D01*
X88257621Y-115318115D01*
X88138471Y-115110831D01*
X87558258Y-114972243D01*
X86969176Y-115066242D01*
X86861529Y-115110831D01*
X86742379Y-115318115D01*
X78278928Y-115318115D01*
X78265000Y-115304163D01*
X78265000Y-114306359D01*
X78348283Y-114271947D01*
X78770465Y-113850502D01*
X78999229Y-113299576D01*
X78999231Y-113296958D01*
X86160250Y-113296958D01*
X86388053Y-113848283D01*
X86809498Y-114270465D01*
X87360424Y-114499229D01*
X87956958Y-114499750D01*
X88508283Y-114271947D01*
X88930465Y-113850502D01*
X89159229Y-113299576D01*
X89159750Y-112703042D01*
X88931947Y-112151717D01*
X88510502Y-111729535D01*
X87959576Y-111500771D01*
X87363042Y-111500250D01*
X86811717Y-111728053D01*
X86389535Y-112149498D01*
X86160771Y-112700424D01*
X86160250Y-113296958D01*
X78999231Y-113296958D01*
X78999750Y-112703042D01*
X78771947Y-112151717D01*
X78350502Y-111729535D01*
X77799576Y-111500771D01*
X77203042Y-111500250D01*
X76651717Y-111728053D01*
X76229535Y-112149498D01*
X76000771Y-112700424D01*
X76000250Y-113296958D01*
X76228053Y-113848283D01*
X76649498Y-114270465D01*
X76735000Y-114305968D01*
X76735000Y-115127530D01*
X76491717Y-115228053D01*
X76069535Y-115649498D01*
X75840771Y-116200424D01*
X75840250Y-116796958D01*
X76058700Y-117325648D01*
X76040937Y-117299063D01*
X75624672Y-116882798D01*
X75659229Y-116799576D01*
X75659750Y-116203042D01*
X75431947Y-115651717D01*
X75010502Y-115229535D01*
X74765000Y-115127594D01*
X74765000Y-114306359D01*
X74848283Y-114271947D01*
X75270465Y-113850502D01*
X75499229Y-113299576D01*
X75499750Y-112703042D01*
X75271947Y-112151717D01*
X74850502Y-111729535D01*
X74299576Y-111500771D01*
X73703042Y-111500250D01*
X73151717Y-111728053D01*
X72729535Y-112149498D01*
X72500771Y-112700424D01*
X72500250Y-113296958D01*
X72728053Y-113848283D01*
X73149498Y-114270465D01*
X73235000Y-114305968D01*
X73235000Y-115304636D01*
X72889535Y-115649498D01*
X72660771Y-116200424D01*
X72660250Y-116796958D01*
X72888053Y-117348283D01*
X73309498Y-117770465D01*
X73860424Y-117999229D01*
X74456958Y-117999750D01*
X74542522Y-117964396D01*
X74735000Y-118156874D01*
X74735000Y-130183126D01*
X74092921Y-130825205D01*
X74086431Y-130790711D01*
X73976925Y-130620535D01*
X73809839Y-130506370D01*
X73611500Y-130466205D01*
X71960500Y-130466205D01*
X71775211Y-130501069D01*
X71605035Y-130610575D01*
X71490870Y-130777661D01*
X71450705Y-130976000D01*
X69539500Y-130976000D01*
X69539500Y-130876544D01*
X69463379Y-130692773D01*
X69322727Y-130552120D01*
X69138956Y-130476000D01*
X68639000Y-130476000D01*
X68514000Y-130601000D01*
X67914000Y-130601000D01*
X67789000Y-130476000D01*
X67289044Y-130476000D01*
X67105273Y-130552120D01*
X66964621Y-130692773D01*
X66888500Y-130876544D01*
X50575000Y-130876544D01*
X50575000Y-129149844D01*
X61599570Y-129149844D01*
X61599570Y-130574360D01*
X61724570Y-130699360D01*
X62700000Y-130699360D01*
X62700000Y-128874300D01*
X63300000Y-128874300D01*
X63300000Y-130699360D01*
X64275430Y-130699360D01*
X64400430Y-130574360D01*
X64400430Y-129149844D01*
X64324310Y-128966073D01*
X64183657Y-128825421D01*
X63999886Y-128749300D01*
X63425000Y-128749300D01*
X63300000Y-128874300D01*
X62700000Y-128874300D01*
X62575000Y-128749300D01*
X62000114Y-128749300D01*
X61816343Y-128825421D01*
X61675690Y-128966073D01*
X61599570Y-129149844D01*
X50575000Y-129149844D01*
X50575000Y-120300000D01*
X54790205Y-120300000D01*
X54790205Y-122700000D01*
X54825069Y-122885289D01*
X54934575Y-123055465D01*
X55101661Y-123169630D01*
X55300000Y-123209795D01*
X57700000Y-123209795D01*
X57885289Y-123174931D01*
X58055465Y-123065425D01*
X58169630Y-122898339D01*
X58209795Y-122700000D01*
X58209795Y-120300000D01*
X58174931Y-120114711D01*
X58065425Y-119944535D01*
X57898339Y-119830370D01*
X57700000Y-119790205D01*
X55300000Y-119790205D01*
X55114711Y-119825069D01*
X54944535Y-119934575D01*
X54830370Y-120101661D01*
X54790205Y-120300000D01*
X50575000Y-120300000D01*
X50575000Y-114836667D01*
X53299706Y-114836667D01*
X53557970Y-115461715D01*
X54035770Y-115940350D01*
X54660366Y-116199704D01*
X55336667Y-116200294D01*
X55961715Y-115942030D01*
X56440350Y-115464230D01*
X56699704Y-114839634D01*
X56700294Y-114163333D01*
X56442030Y-113538285D01*
X55964230Y-113059650D01*
X55339634Y-112800296D01*
X54663333Y-112799706D01*
X54038285Y-113057970D01*
X53559650Y-113535770D01*
X53300296Y-114160366D01*
X53299706Y-114836667D01*
X50575000Y-114836667D01*
X50575000Y-109800000D01*
X53290205Y-109800000D01*
X53290205Y-112200000D01*
X53325069Y-112385289D01*
X53434575Y-112555465D01*
X53601661Y-112669630D01*
X53800000Y-112709795D01*
X56200000Y-112709795D01*
X56385289Y-112674931D01*
X56555465Y-112565425D01*
X56669630Y-112398339D01*
X56709795Y-112200000D01*
X57002944Y-112200000D01*
X58800000Y-113997056D01*
X58800000Y-121000000D01*
X58891345Y-121459220D01*
X59151472Y-121848528D01*
X61589775Y-124286831D01*
X61589775Y-127750700D01*
X61624639Y-127935989D01*
X61734145Y-128106165D01*
X61901231Y-128220330D01*
X62099570Y-128260495D01*
X63900430Y-128260495D01*
X64085719Y-128225631D01*
X64255895Y-128116125D01*
X64370060Y-127949039D01*
X64410225Y-127750700D01*
X64410225Y-127200640D01*
X66942205Y-127200640D01*
X66942205Y-129198000D01*
X66977069Y-129383289D01*
X67086575Y-129553465D01*
X67253661Y-129667630D01*
X67452000Y-129707795D01*
X73548000Y-129707795D01*
X73733289Y-129672931D01*
X73903465Y-129563425D01*
X74017630Y-129396339D01*
X74057795Y-129198000D01*
X74057795Y-123102000D01*
X74022931Y-122916711D01*
X73913425Y-122746535D01*
X73746339Y-122632370D01*
X73548000Y-122592205D01*
X67452000Y-122592205D01*
X67266711Y-122627069D01*
X67096535Y-122736575D01*
X66982370Y-122903661D01*
X66942205Y-123102000D01*
X66942205Y-124800640D01*
X64410225Y-124800640D01*
X64410225Y-124250580D01*
X64375361Y-124065291D01*
X64265855Y-123895115D01*
X64165497Y-123826543D01*
X64108655Y-123540780D01*
X63848528Y-123151472D01*
X61200000Y-120502944D01*
X61200000Y-117681885D01*
X63242379Y-117681885D01*
X63361529Y-117889169D01*
X63941742Y-118027757D01*
X64530824Y-117933758D01*
X64638471Y-117889169D01*
X64757621Y-117681885D01*
X64000000Y-116924264D01*
X63242379Y-117681885D01*
X61200000Y-117681885D01*
X61200000Y-116441742D01*
X62472243Y-116441742D01*
X62566242Y-117030824D01*
X62610831Y-117138471D01*
X62818115Y-117257621D01*
X63575736Y-116500000D01*
X64424264Y-116500000D01*
X65181885Y-117257621D01*
X65389169Y-117138471D01*
X65527757Y-116558258D01*
X65433758Y-115969176D01*
X65389169Y-115861529D01*
X65181885Y-115742379D01*
X64424264Y-116500000D01*
X63575736Y-116500000D01*
X62818115Y-115742379D01*
X62610831Y-115861529D01*
X62472243Y-116441742D01*
X61200000Y-116441742D01*
X61200000Y-115318115D01*
X63242379Y-115318115D01*
X64000000Y-116075736D01*
X64757621Y-115318115D01*
X64638471Y-115110831D01*
X64058258Y-114972243D01*
X63469176Y-115066242D01*
X63361529Y-115110831D01*
X63242379Y-115318115D01*
X61200000Y-115318115D01*
X61200000Y-113500000D01*
X61159613Y-113296958D01*
X62340250Y-113296958D01*
X62568053Y-113848283D01*
X62989498Y-114270465D01*
X63540424Y-114499229D01*
X64136958Y-114499750D01*
X64688283Y-114271947D01*
X65110465Y-113850502D01*
X65339229Y-113299576D01*
X65339750Y-112703042D01*
X65111947Y-112151717D01*
X64690502Y-111729535D01*
X64139576Y-111500771D01*
X63543042Y-111500250D01*
X62991717Y-111728053D01*
X62569535Y-112149498D01*
X62340771Y-112700424D01*
X62340250Y-113296958D01*
X61159613Y-113296958D01*
X61108655Y-113040780D01*
X60848528Y-112651472D01*
X59533723Y-111336667D01*
X93299706Y-111336667D01*
X93557970Y-111961715D01*
X94035770Y-112440350D01*
X94660366Y-112699704D01*
X95336667Y-112700294D01*
X95961715Y-112442030D01*
X96440350Y-111964230D01*
X96699704Y-111339634D01*
X96700294Y-110663333D01*
X96442030Y-110038285D01*
X95964230Y-109559650D01*
X95339634Y-109300296D01*
X94663333Y-109299706D01*
X94038285Y-109557970D01*
X93559650Y-110035770D01*
X93300296Y-110660366D01*
X93299706Y-111336667D01*
X59533723Y-111336667D01*
X58348528Y-110151472D01*
X57959220Y-109891345D01*
X57500000Y-109800000D01*
X56709795Y-109800000D01*
X56709223Y-109796958D01*
X62500250Y-109796958D01*
X62728053Y-110348283D01*
X63149498Y-110770465D01*
X63700424Y-110999229D01*
X64296958Y-110999750D01*
X64848283Y-110771947D01*
X65270465Y-110350502D01*
X65499229Y-109799576D01*
X65499231Y-109796958D01*
X72660250Y-109796958D01*
X72888053Y-110348283D01*
X73309498Y-110770465D01*
X73860424Y-110999229D01*
X74456958Y-110999750D01*
X75008283Y-110771947D01*
X75430465Y-110350502D01*
X75659229Y-109799576D01*
X75659231Y-109796958D01*
X76000250Y-109796958D01*
X76228053Y-110348283D01*
X76649498Y-110770465D01*
X77200424Y-110999229D01*
X77796958Y-110999750D01*
X78348283Y-110771947D01*
X78438502Y-110681885D01*
X86902379Y-110681885D01*
X87021529Y-110889169D01*
X87601742Y-111027757D01*
X88190824Y-110933758D01*
X88298471Y-110889169D01*
X88417621Y-110681885D01*
X87660000Y-109924264D01*
X86902379Y-110681885D01*
X78438502Y-110681885D01*
X78770465Y-110350502D01*
X78999229Y-109799576D01*
X78999541Y-109441742D01*
X86132243Y-109441742D01*
X86226242Y-110030824D01*
X86270831Y-110138471D01*
X86478115Y-110257621D01*
X87235736Y-109500000D01*
X88084264Y-109500000D01*
X88841885Y-110257621D01*
X89049169Y-110138471D01*
X89187757Y-109558258D01*
X89093758Y-108969176D01*
X89049169Y-108861529D01*
X88841885Y-108742379D01*
X88084264Y-109500000D01*
X87235736Y-109500000D01*
X86478115Y-108742379D01*
X86270831Y-108861529D01*
X86132243Y-109441742D01*
X78999541Y-109441742D01*
X78999750Y-109203042D01*
X78771947Y-108651717D01*
X78438928Y-108318115D01*
X86902379Y-108318115D01*
X87660000Y-109075736D01*
X88417621Y-108318115D01*
X88298471Y-108110831D01*
X87718258Y-107972243D01*
X87129176Y-108066242D01*
X87021529Y-108110831D01*
X86902379Y-108318115D01*
X78438928Y-108318115D01*
X78350502Y-108229535D01*
X77799576Y-108000771D01*
X77203042Y-108000250D01*
X76651717Y-108228053D01*
X76229535Y-108649498D01*
X76000771Y-109200424D01*
X76000250Y-109796958D01*
X75659231Y-109796958D01*
X75659750Y-109203042D01*
X75431947Y-108651717D01*
X75010502Y-108229535D01*
X74459576Y-108000771D01*
X73863042Y-108000250D01*
X73311717Y-108228053D01*
X72889535Y-108649498D01*
X72660771Y-109200424D01*
X72660250Y-109796958D01*
X65499231Y-109796958D01*
X65499750Y-109203042D01*
X65271947Y-108651717D01*
X64850502Y-108229535D01*
X64299576Y-108000771D01*
X63703042Y-108000250D01*
X63151717Y-108228053D01*
X62729535Y-108649498D01*
X62500771Y-109200424D01*
X62500250Y-109796958D01*
X56709223Y-109796958D01*
X56674931Y-109614711D01*
X56565425Y-109444535D01*
X56398339Y-109330370D01*
X56200000Y-109290205D01*
X53800000Y-109290205D01*
X53614711Y-109325069D01*
X53444535Y-109434575D01*
X53330370Y-109601661D01*
X53290205Y-109800000D01*
X50575000Y-109800000D01*
X50575000Y-103435687D01*
X50799619Y-103435687D01*
X51133843Y-104244572D01*
X51752173Y-104863982D01*
X52560473Y-105199618D01*
X53435687Y-105200381D01*
X54244572Y-104866157D01*
X54274113Y-104836667D01*
X56299706Y-104836667D01*
X56557970Y-105461715D01*
X57035770Y-105940350D01*
X57660366Y-106199704D01*
X58336667Y-106200294D01*
X58961715Y-105942030D01*
X59440350Y-105464230D01*
X59664257Y-104925000D01*
X59800000Y-104925000D01*
X59800000Y-105799456D01*
X59876121Y-105983227D01*
X60016773Y-106123880D01*
X60200544Y-106200000D01*
X61075000Y-106200000D01*
X61200000Y-106075000D01*
X61200000Y-104800000D01*
X61800000Y-104800000D01*
X61800000Y-106075000D01*
X61925000Y-106200000D01*
X62799456Y-106200000D01*
X62983227Y-106123880D01*
X63123879Y-105983227D01*
X63200000Y-105799456D01*
X63200000Y-104925000D01*
X63111667Y-104836667D01*
X86799706Y-104836667D01*
X87057970Y-105461715D01*
X87535770Y-105940350D01*
X88160366Y-106199704D01*
X88836667Y-106200294D01*
X89461715Y-105942030D01*
X89940350Y-105464230D01*
X90164257Y-104925000D01*
X90300000Y-104925000D01*
X90300000Y-105799456D01*
X90376121Y-105983227D01*
X90516773Y-106123880D01*
X90700544Y-106200000D01*
X91575000Y-106200000D01*
X91700000Y-106075000D01*
X91700000Y-104800000D01*
X92300000Y-104800000D01*
X92300000Y-106075000D01*
X92425000Y-106200000D01*
X93299456Y-106200000D01*
X93483227Y-106123880D01*
X93623879Y-105983227D01*
X93700000Y-105799456D01*
X93700000Y-104925000D01*
X93575000Y-104800000D01*
X92300000Y-104800000D01*
X91700000Y-104800000D01*
X90425000Y-104800000D01*
X90300000Y-104925000D01*
X90164257Y-104925000D01*
X90199704Y-104839634D01*
X90200294Y-104163333D01*
X89942030Y-103538285D01*
X89604879Y-103200544D01*
X90300000Y-103200544D01*
X90300000Y-104075000D01*
X90425000Y-104200000D01*
X91700000Y-104200000D01*
X91700000Y-102925000D01*
X92300000Y-102925000D01*
X92300000Y-104200000D01*
X93575000Y-104200000D01*
X93700000Y-104075000D01*
X93700000Y-103435687D01*
X94799619Y-103435687D01*
X95133843Y-104244572D01*
X95752173Y-104863982D01*
X96560473Y-105199618D01*
X97435687Y-105200381D01*
X98244572Y-104866157D01*
X98863982Y-104247827D01*
X99199618Y-103439527D01*
X99200381Y-102564313D01*
X98866157Y-101755428D01*
X98247827Y-101136018D01*
X97439527Y-100800382D01*
X96564313Y-100799619D01*
X95755428Y-101133843D01*
X95136018Y-101752173D01*
X94800382Y-102560473D01*
X94799619Y-103435687D01*
X93700000Y-103435687D01*
X93700000Y-103200544D01*
X93623879Y-103016773D01*
X93483227Y-102876120D01*
X93299456Y-102800000D01*
X92425000Y-102800000D01*
X92300000Y-102925000D01*
X91700000Y-102925000D01*
X91575000Y-102800000D01*
X90700544Y-102800000D01*
X90516773Y-102876120D01*
X90376121Y-103016773D01*
X90300000Y-103200544D01*
X89604879Y-103200544D01*
X89464230Y-103059650D01*
X88839634Y-102800296D01*
X88163333Y-102799706D01*
X87538285Y-103057970D01*
X87059650Y-103535770D01*
X86800296Y-104160366D01*
X86799706Y-104836667D01*
X63111667Y-104836667D01*
X63075000Y-104800000D01*
X61800000Y-104800000D01*
X61200000Y-104800000D01*
X59925000Y-104800000D01*
X59800000Y-104925000D01*
X59664257Y-104925000D01*
X59699704Y-104839634D01*
X59700294Y-104163333D01*
X59442030Y-103538285D01*
X59104879Y-103200544D01*
X59800000Y-103200544D01*
X59800000Y-104075000D01*
X59925000Y-104200000D01*
X61200000Y-104200000D01*
X61200000Y-102925000D01*
X61800000Y-102925000D01*
X61800000Y-104200000D01*
X63075000Y-104200000D01*
X63200000Y-104075000D01*
X63200000Y-103200544D01*
X63123879Y-103016773D01*
X62983227Y-102876120D01*
X62799456Y-102800000D01*
X61925000Y-102800000D01*
X61800000Y-102925000D01*
X61200000Y-102925000D01*
X61075000Y-102800000D01*
X60200544Y-102800000D01*
X60016773Y-102876120D01*
X59876121Y-103016773D01*
X59800000Y-103200544D01*
X59104879Y-103200544D01*
X58964230Y-103059650D01*
X58339634Y-102800296D01*
X57663333Y-102799706D01*
X57038285Y-103057970D01*
X56559650Y-103535770D01*
X56300296Y-104160366D01*
X56299706Y-104836667D01*
X54274113Y-104836667D01*
X54863982Y-104247827D01*
X55199618Y-103439527D01*
X55200381Y-102564313D01*
X54960601Y-101984000D01*
X68626605Y-101984000D01*
X68626605Y-104016000D01*
X68661469Y-104201289D01*
X68770975Y-104371465D01*
X68938061Y-104485630D01*
X69136400Y-104525795D01*
X70863600Y-104525795D01*
X71048889Y-104490931D01*
X71219065Y-104381425D01*
X71333230Y-104214339D01*
X71373395Y-104016000D01*
X71373395Y-103843406D01*
X71575789Y-104146311D01*
X72018173Y-104441902D01*
X72540000Y-104545700D01*
X73061827Y-104441902D01*
X73504211Y-104146311D01*
X73799802Y-103703927D01*
X73810000Y-103652658D01*
X73820198Y-103703927D01*
X74115789Y-104146311D01*
X74558173Y-104441902D01*
X75080000Y-104545700D01*
X75601827Y-104441902D01*
X76044211Y-104146311D01*
X76339802Y-103703927D01*
X76350000Y-103652658D01*
X76360198Y-103703927D01*
X76655789Y-104146311D01*
X77098173Y-104441902D01*
X77620000Y-104545700D01*
X78141827Y-104441902D01*
X78584211Y-104146311D01*
X78879802Y-103703927D01*
X78890000Y-103652658D01*
X78900198Y-103703927D01*
X79195789Y-104146311D01*
X79638173Y-104441902D01*
X80160000Y-104545700D01*
X80681827Y-104441902D01*
X81124211Y-104146311D01*
X81419802Y-103703927D01*
X81523600Y-103182100D01*
X81523600Y-102817900D01*
X81419802Y-102296073D01*
X81124211Y-101853689D01*
X80681827Y-101558098D01*
X80160000Y-101454300D01*
X79638173Y-101558098D01*
X79195789Y-101853689D01*
X78900198Y-102296073D01*
X78890000Y-102347342D01*
X78879802Y-102296073D01*
X78584211Y-101853689D01*
X78141827Y-101558098D01*
X77620000Y-101454300D01*
X77098173Y-101558098D01*
X76655789Y-101853689D01*
X76360198Y-102296073D01*
X76350000Y-102347342D01*
X76339802Y-102296073D01*
X76044211Y-101853689D01*
X75601827Y-101558098D01*
X75080000Y-101454300D01*
X74558173Y-101558098D01*
X74115789Y-101853689D01*
X73820198Y-102296073D01*
X73810000Y-102347342D01*
X73799802Y-102296073D01*
X73504211Y-101853689D01*
X73061827Y-101558098D01*
X72540000Y-101454300D01*
X72018173Y-101558098D01*
X71575789Y-101853689D01*
X71373395Y-102156594D01*
X71373395Y-101984000D01*
X71338531Y-101798711D01*
X71229025Y-101628535D01*
X71061939Y-101514370D01*
X70863600Y-101474205D01*
X69136400Y-101474205D01*
X68951111Y-101509069D01*
X68780935Y-101618575D01*
X68666770Y-101785661D01*
X68626605Y-101984000D01*
X54960601Y-101984000D01*
X54866157Y-101755428D01*
X54247827Y-101136018D01*
X53439527Y-100800382D01*
X52564313Y-100799619D01*
X51755428Y-101133843D01*
X51136018Y-101752173D01*
X50800382Y-102560473D01*
X50799619Y-103435687D01*
X50575000Y-103435687D01*
X50575000Y-100575000D01*
X99425000Y-100575000D01*
X99425000Y-149425000D01*
M02*
