G04 #@! TF.FileFunction,Legend,Bot*
%FSLAX46Y46*%
G04 Gerber Fmt 4.6, Leading zero omitted, Abs format (unit mm)*
G04 Created by KiCad (PCBNEW 4.0.4-stable) date 09/13/16 18:24:55*
%MOMM*%
%LPD*%
G01*
G04 APERTURE LIST*
%ADD10C,0.100000*%
%ADD11C,0.150000*%
G04 APERTURE END LIST*
D10*
D11*
X63000000Y-128250000D02*
X62550000Y-128800000D01*
X62550000Y-128800000D02*
X63450000Y-128800000D01*
X63450000Y-128800000D02*
X63000000Y-128250000D01*
X62450000Y-128250000D02*
X63550000Y-128250000D01*
X64750060Y-126700860D02*
X64399540Y-126700860D01*
X61249940Y-126700860D02*
X61600460Y-126700860D01*
X64750060Y-130750440D02*
X64399540Y-130750440D01*
X64750060Y-126249560D02*
X64399540Y-126249560D01*
X61249940Y-126249560D02*
X61600460Y-126249560D01*
X61249940Y-130750440D02*
X61600460Y-130750440D01*
X64750060Y-126249560D02*
X64750060Y-130750440D01*
X61249940Y-126249560D02*
X61249940Y-130750440D01*
X79500000Y-128250000D02*
X79050000Y-128800000D01*
X79050000Y-128800000D02*
X79950000Y-128800000D01*
X79950000Y-128800000D02*
X79500000Y-128250000D01*
X78950000Y-128250000D02*
X80050000Y-128250000D01*
X81250060Y-126700860D02*
X80899540Y-126700860D01*
X77749940Y-126700860D02*
X78100460Y-126700860D01*
X81250060Y-130750440D02*
X80899540Y-130750440D01*
X81250060Y-126249560D02*
X80899540Y-126249560D01*
X77749940Y-126249560D02*
X78100460Y-126249560D01*
X77749940Y-130750440D02*
X78100460Y-130750440D01*
X81250060Y-126249560D02*
X81250060Y-130750440D01*
X77749940Y-126249560D02*
X77749940Y-130750440D01*
X69103000Y-130976000D02*
X69103000Y-134151000D01*
X69103000Y-134151000D02*
X67325000Y-134151000D01*
X67325000Y-134151000D02*
X67325000Y-130976000D01*
X73675000Y-130976000D02*
X73675000Y-134151000D01*
X73675000Y-134151000D02*
X71897000Y-134151000D01*
X71897000Y-134151000D02*
X71897000Y-130976000D01*
X67071000Y-124880000D02*
X67071000Y-130976000D01*
X67071000Y-130976000D02*
X73929000Y-130976000D01*
X73929000Y-130976000D02*
X73929000Y-123102000D01*
X73929000Y-122975000D02*
X67071000Y-122975000D01*
X67071000Y-123102000D02*
X67071000Y-124880000D01*
X85603000Y-130976000D02*
X85603000Y-134151000D01*
X85603000Y-134151000D02*
X83825000Y-134151000D01*
X83825000Y-134151000D02*
X83825000Y-130976000D01*
X90175000Y-130976000D02*
X90175000Y-134151000D01*
X90175000Y-134151000D02*
X88397000Y-134151000D01*
X88397000Y-134151000D02*
X88397000Y-130976000D01*
X83571000Y-124880000D02*
X83571000Y-130976000D01*
X83571000Y-130976000D02*
X90429000Y-130976000D01*
X90429000Y-130976000D02*
X90429000Y-123102000D01*
X90429000Y-122975000D02*
X83571000Y-122975000D01*
X83571000Y-123102000D02*
X83571000Y-124880000D01*
X60602381Y-127761905D02*
X59602381Y-127761905D01*
X59602381Y-128000000D01*
X59650000Y-128142858D01*
X59745238Y-128238096D01*
X59840476Y-128285715D01*
X60030952Y-128333334D01*
X60173810Y-128333334D01*
X60364286Y-128285715D01*
X60459524Y-128238096D01*
X60554762Y-128142858D01*
X60602381Y-128000000D01*
X60602381Y-127761905D01*
X60602381Y-129285715D02*
X60602381Y-128714286D01*
X60602381Y-129000000D02*
X59602381Y-129000000D01*
X59745238Y-128904762D01*
X59840476Y-128809524D01*
X59888095Y-128714286D01*
X66352381Y-124988095D02*
X65352381Y-124988095D01*
X66352381Y-125559524D02*
X65780952Y-125130952D01*
X65352381Y-125559524D02*
X65923810Y-124988095D01*
X66016667Y-131311905D02*
X66016667Y-131788096D01*
X66302381Y-131216667D02*
X65302381Y-131550000D01*
X66302381Y-131883334D01*
X77102381Y-127761905D02*
X76102381Y-127761905D01*
X76102381Y-128000000D01*
X76150000Y-128142858D01*
X76245238Y-128238096D01*
X76340476Y-128285715D01*
X76530952Y-128333334D01*
X76673810Y-128333334D01*
X76864286Y-128285715D01*
X76959524Y-128238096D01*
X77054762Y-128142858D01*
X77102381Y-128000000D01*
X77102381Y-127761905D01*
X76197619Y-128714286D02*
X76150000Y-128761905D01*
X76102381Y-128857143D01*
X76102381Y-129095239D01*
X76150000Y-129190477D01*
X76197619Y-129238096D01*
X76292857Y-129285715D01*
X76388095Y-129285715D01*
X76530952Y-129238096D01*
X77102381Y-128666667D01*
X77102381Y-129285715D01*
X82852381Y-124988095D02*
X81852381Y-124988095D01*
X82852381Y-125559524D02*
X82280952Y-125130952D01*
X81852381Y-125559524D02*
X82423810Y-124988095D01*
X82516667Y-131311905D02*
X82516667Y-131788096D01*
X82802381Y-131216667D02*
X81802381Y-131550000D01*
X82802381Y-131883334D01*
X70595238Y-122633619D02*
X70690476Y-122586000D01*
X70785714Y-122490762D01*
X70928571Y-122347905D01*
X71023810Y-122300286D01*
X71119048Y-122300286D01*
X71071429Y-122538381D02*
X71166667Y-122490762D01*
X71261905Y-122395524D01*
X71309524Y-122205048D01*
X71309524Y-121871714D01*
X71261905Y-121681238D01*
X71166667Y-121586000D01*
X71071429Y-121538381D01*
X70880952Y-121538381D01*
X70785714Y-121586000D01*
X70690476Y-121681238D01*
X70642857Y-121871714D01*
X70642857Y-122205048D01*
X70690476Y-122395524D01*
X70785714Y-122490762D01*
X70880952Y-122538381D01*
X71071429Y-122538381D01*
X69690476Y-122538381D02*
X70261905Y-122538381D01*
X69976191Y-122538381D02*
X69976191Y-121538381D01*
X70071429Y-121681238D01*
X70166667Y-121776476D01*
X70261905Y-121824095D01*
X87095238Y-122633619D02*
X87190476Y-122586000D01*
X87285714Y-122490762D01*
X87428571Y-122347905D01*
X87523810Y-122300286D01*
X87619048Y-122300286D01*
X87571429Y-122538381D02*
X87666667Y-122490762D01*
X87761905Y-122395524D01*
X87809524Y-122205048D01*
X87809524Y-121871714D01*
X87761905Y-121681238D01*
X87666667Y-121586000D01*
X87571429Y-121538381D01*
X87380952Y-121538381D01*
X87285714Y-121586000D01*
X87190476Y-121681238D01*
X87142857Y-121871714D01*
X87142857Y-122205048D01*
X87190476Y-122395524D01*
X87285714Y-122490762D01*
X87380952Y-122538381D01*
X87571429Y-122538381D01*
X86761905Y-121633619D02*
X86714286Y-121586000D01*
X86619048Y-121538381D01*
X86380952Y-121538381D01*
X86285714Y-121586000D01*
X86238095Y-121633619D01*
X86190476Y-121728857D01*
X86190476Y-121824095D01*
X86238095Y-121966952D01*
X86809524Y-122538381D01*
X86190476Y-122538381D01*
M02*
