G04 #@! TF.FileFunction,Copper,L1,Top,Signal*
%FSLAX46Y46*%
G04 Gerber Fmt 4.6, Leading zero omitted, Abs format (unit mm)*
G04 Created by KiCad (PCBNEW 4.0.4-stable) date 09/13/16 18:24:55*
%MOMM*%
%LPD*%
G01*
G04 APERTURE LIST*
%ADD10C,0.100000*%
%ADD11C,2.400000*%
%ADD12R,2.400000X2.400000*%
%ADD13C,1.998980*%
%ADD14R,1.727200X2.032000*%
%ADD15O,1.727200X2.032000*%
%ADD16C,3.400000*%
%ADD17C,0.600000*%
%ADD18C,0.530000*%
%ADD19C,0.200000*%
G04 APERTURE END LIST*
D10*
D11*
X61000000Y-145000000D03*
D12*
X57500000Y-145000000D03*
D11*
X68500000Y-145000000D03*
D12*
X65000000Y-145000000D03*
D11*
X76000000Y-145000000D03*
D12*
X72500000Y-145000000D03*
D11*
X83500000Y-145000000D03*
D12*
X80000000Y-145000000D03*
D11*
X55000000Y-114500000D03*
D12*
X55000000Y-111000000D03*
D11*
X95000000Y-111000000D03*
D12*
X95000000Y-114500000D03*
D11*
X92500000Y-145000000D03*
D12*
X89000000Y-145000000D03*
D13*
X64000000Y-109500000D03*
X74160000Y-109500000D03*
X77500000Y-109500000D03*
X87660000Y-109500000D03*
X74000000Y-113000000D03*
X63840000Y-113000000D03*
X77500000Y-113000000D03*
X87660000Y-113000000D03*
X64000000Y-116500000D03*
X74160000Y-116500000D03*
X87500000Y-116500000D03*
X77340000Y-116500000D03*
D12*
X94500000Y-137500000D03*
X94500000Y-121500000D03*
X56500000Y-121500000D03*
X56500000Y-137500000D03*
D14*
X70000000Y-103000000D03*
D15*
X72540000Y-103000000D03*
X75080000Y-103000000D03*
X77620000Y-103000000D03*
X80160000Y-103000000D03*
D11*
X88500000Y-104500000D03*
D12*
X92000000Y-104500000D03*
D16*
X53000000Y-147000000D03*
X97000000Y-147000000D03*
X97000000Y-103000000D03*
X53000000Y-103000000D03*
D11*
X58000000Y-104500000D03*
D12*
X61500000Y-104500000D03*
D17*
X87500000Y-132500000D03*
D18*
X64000000Y-109500000D02*
X60500000Y-109500000D01*
X60500000Y-109500000D02*
X59500000Y-110500000D01*
X77340000Y-122340000D02*
X87500000Y-132500000D01*
X77340000Y-122340000D02*
X77340000Y-116500000D01*
X74160000Y-109500000D02*
X74160000Y-105840000D01*
X75080000Y-104920000D02*
X75080000Y-103000000D01*
X74160000Y-105840000D02*
X75080000Y-104920000D01*
X77500000Y-109500000D02*
X74160000Y-109500000D01*
X72540000Y-103000000D02*
X72540000Y-106960000D01*
X66500000Y-113000000D02*
X72540000Y-106960000D01*
X66500000Y-113000000D02*
X63840000Y-113000000D01*
X80160000Y-103000000D02*
X80160000Y-105500000D01*
X80160000Y-105500000D02*
X87660000Y-113000000D01*
D19*
G36*
X59937273Y-102945203D02*
X59830370Y-103101661D01*
X59790205Y-103300000D01*
X59790205Y-105700000D01*
X59825069Y-105885289D01*
X59934575Y-106055465D01*
X59977011Y-106084460D01*
X60400008Y-139501266D01*
X60408378Y-139540068D01*
X60431186Y-139572558D01*
X60464836Y-139593614D01*
X60500000Y-139600000D01*
X85900000Y-139600000D01*
X85900000Y-149425000D01*
X50575000Y-149425000D01*
X50575000Y-147435687D01*
X50799619Y-147435687D01*
X51133843Y-148244572D01*
X51752173Y-148863982D01*
X52560473Y-149199618D01*
X53435687Y-149200381D01*
X54244572Y-148866157D01*
X54863982Y-148247827D01*
X55199618Y-147439527D01*
X55200381Y-146564313D01*
X54866157Y-145755428D01*
X54247827Y-145136018D01*
X53439527Y-144800382D01*
X52564313Y-144799619D01*
X51755428Y-145133843D01*
X51136018Y-145752173D01*
X50800382Y-146560473D01*
X50799619Y-147435687D01*
X50575000Y-147435687D01*
X50575000Y-143800000D01*
X55790205Y-143800000D01*
X55790205Y-146200000D01*
X55825069Y-146385289D01*
X55934575Y-146555465D01*
X56101661Y-146669630D01*
X56300000Y-146709795D01*
X58700000Y-146709795D01*
X58885289Y-146674931D01*
X59055465Y-146565425D01*
X59169630Y-146398339D01*
X59183587Y-146329416D01*
X60094848Y-146329416D01*
X60239270Y-146557446D01*
X60893185Y-146730011D01*
X61563362Y-146639198D01*
X61760730Y-146557446D01*
X61905152Y-146329416D01*
X61000000Y-145424264D01*
X60094848Y-146329416D01*
X59183587Y-146329416D01*
X59209795Y-146200000D01*
X59209795Y-144893185D01*
X59269989Y-144893185D01*
X59360802Y-145563362D01*
X59442554Y-145760730D01*
X59670584Y-145905152D01*
X60575736Y-145000000D01*
X61424264Y-145000000D01*
X62329416Y-145905152D01*
X62557446Y-145760730D01*
X62730011Y-145106815D01*
X62639198Y-144436638D01*
X62557446Y-144239270D01*
X62329416Y-144094848D01*
X61424264Y-145000000D01*
X60575736Y-145000000D01*
X59670584Y-144094848D01*
X59442554Y-144239270D01*
X59269989Y-144893185D01*
X59209795Y-144893185D01*
X59209795Y-143800000D01*
X59185445Y-143670584D01*
X60094848Y-143670584D01*
X61000000Y-144575736D01*
X61775736Y-143800000D01*
X63290205Y-143800000D01*
X63290205Y-146200000D01*
X63325069Y-146385289D01*
X63434575Y-146555465D01*
X63601661Y-146669630D01*
X63800000Y-146709795D01*
X66200000Y-146709795D01*
X66385289Y-146674931D01*
X66555465Y-146565425D01*
X66669630Y-146398339D01*
X66683587Y-146329416D01*
X67594848Y-146329416D01*
X67739270Y-146557446D01*
X68393185Y-146730011D01*
X69063362Y-146639198D01*
X69260730Y-146557446D01*
X69405152Y-146329416D01*
X68500000Y-145424264D01*
X67594848Y-146329416D01*
X66683587Y-146329416D01*
X66709795Y-146200000D01*
X66709795Y-144893185D01*
X66769989Y-144893185D01*
X66860802Y-145563362D01*
X66942554Y-145760730D01*
X67170584Y-145905152D01*
X68075736Y-145000000D01*
X68924264Y-145000000D01*
X69829416Y-145905152D01*
X70057446Y-145760730D01*
X70230011Y-145106815D01*
X70139198Y-144436638D01*
X70057446Y-144239270D01*
X69829416Y-144094848D01*
X68924264Y-145000000D01*
X68075736Y-145000000D01*
X67170584Y-144094848D01*
X66942554Y-144239270D01*
X66769989Y-144893185D01*
X66709795Y-144893185D01*
X66709795Y-143800000D01*
X66685445Y-143670584D01*
X67594848Y-143670584D01*
X68500000Y-144575736D01*
X69275736Y-143800000D01*
X70790205Y-143800000D01*
X70790205Y-146200000D01*
X70825069Y-146385289D01*
X70934575Y-146555465D01*
X71101661Y-146669630D01*
X71300000Y-146709795D01*
X73700000Y-146709795D01*
X73885289Y-146674931D01*
X74055465Y-146565425D01*
X74169630Y-146398339D01*
X74183587Y-146329416D01*
X75094848Y-146329416D01*
X75239270Y-146557446D01*
X75893185Y-146730011D01*
X76563362Y-146639198D01*
X76760730Y-146557446D01*
X76905152Y-146329416D01*
X76000000Y-145424264D01*
X75094848Y-146329416D01*
X74183587Y-146329416D01*
X74209795Y-146200000D01*
X74209795Y-144893185D01*
X74269989Y-144893185D01*
X74360802Y-145563362D01*
X74442554Y-145760730D01*
X74670584Y-145905152D01*
X75575736Y-145000000D01*
X76424264Y-145000000D01*
X77329416Y-145905152D01*
X77557446Y-145760730D01*
X77730011Y-145106815D01*
X77639198Y-144436638D01*
X77557446Y-144239270D01*
X77329416Y-144094848D01*
X76424264Y-145000000D01*
X75575736Y-145000000D01*
X74670584Y-144094848D01*
X74442554Y-144239270D01*
X74269989Y-144893185D01*
X74209795Y-144893185D01*
X74209795Y-143800000D01*
X74185445Y-143670584D01*
X75094848Y-143670584D01*
X76000000Y-144575736D01*
X76775736Y-143800000D01*
X78290205Y-143800000D01*
X78290205Y-146200000D01*
X78325069Y-146385289D01*
X78434575Y-146555465D01*
X78601661Y-146669630D01*
X78800000Y-146709795D01*
X81200000Y-146709795D01*
X81385289Y-146674931D01*
X81555465Y-146565425D01*
X81669630Y-146398339D01*
X81683587Y-146329416D01*
X82594848Y-146329416D01*
X82739270Y-146557446D01*
X83393185Y-146730011D01*
X84063362Y-146639198D01*
X84260730Y-146557446D01*
X84405152Y-146329416D01*
X83500000Y-145424264D01*
X82594848Y-146329416D01*
X81683587Y-146329416D01*
X81709795Y-146200000D01*
X81709795Y-144893185D01*
X81769989Y-144893185D01*
X81860802Y-145563362D01*
X81942554Y-145760730D01*
X82170584Y-145905152D01*
X83075736Y-145000000D01*
X83924264Y-145000000D01*
X84829416Y-145905152D01*
X85057446Y-145760730D01*
X85230011Y-145106815D01*
X85139198Y-144436638D01*
X85057446Y-144239270D01*
X84829416Y-144094848D01*
X83924264Y-145000000D01*
X83075736Y-145000000D01*
X82170584Y-144094848D01*
X81942554Y-144239270D01*
X81769989Y-144893185D01*
X81709795Y-144893185D01*
X81709795Y-143800000D01*
X81685445Y-143670584D01*
X82594848Y-143670584D01*
X83500000Y-144575736D01*
X84405152Y-143670584D01*
X84260730Y-143442554D01*
X83606815Y-143269989D01*
X82936638Y-143360802D01*
X82739270Y-143442554D01*
X82594848Y-143670584D01*
X81685445Y-143670584D01*
X81674931Y-143614711D01*
X81565425Y-143444535D01*
X81398339Y-143330370D01*
X81200000Y-143290205D01*
X78800000Y-143290205D01*
X78614711Y-143325069D01*
X78444535Y-143434575D01*
X78330370Y-143601661D01*
X78290205Y-143800000D01*
X76775736Y-143800000D01*
X76905152Y-143670584D01*
X76760730Y-143442554D01*
X76106815Y-143269989D01*
X75436638Y-143360802D01*
X75239270Y-143442554D01*
X75094848Y-143670584D01*
X74185445Y-143670584D01*
X74174931Y-143614711D01*
X74065425Y-143444535D01*
X73898339Y-143330370D01*
X73700000Y-143290205D01*
X71300000Y-143290205D01*
X71114711Y-143325069D01*
X70944535Y-143434575D01*
X70830370Y-143601661D01*
X70790205Y-143800000D01*
X69275736Y-143800000D01*
X69405152Y-143670584D01*
X69260730Y-143442554D01*
X68606815Y-143269989D01*
X67936638Y-143360802D01*
X67739270Y-143442554D01*
X67594848Y-143670584D01*
X66685445Y-143670584D01*
X66674931Y-143614711D01*
X66565425Y-143444535D01*
X66398339Y-143330370D01*
X66200000Y-143290205D01*
X63800000Y-143290205D01*
X63614711Y-143325069D01*
X63444535Y-143434575D01*
X63330370Y-143601661D01*
X63290205Y-143800000D01*
X61775736Y-143800000D01*
X61905152Y-143670584D01*
X61760730Y-143442554D01*
X61106815Y-143269989D01*
X60436638Y-143360802D01*
X60239270Y-143442554D01*
X60094848Y-143670584D01*
X59185445Y-143670584D01*
X59174931Y-143614711D01*
X59065425Y-143444535D01*
X58898339Y-143330370D01*
X58700000Y-143290205D01*
X56300000Y-143290205D01*
X56114711Y-143325069D01*
X55944535Y-143434575D01*
X55830370Y-143601661D01*
X55790205Y-143800000D01*
X50575000Y-143800000D01*
X50575000Y-136300000D01*
X54790205Y-136300000D01*
X54790205Y-138700000D01*
X54825069Y-138885289D01*
X54934575Y-139055465D01*
X55101661Y-139169630D01*
X55300000Y-139209795D01*
X57700000Y-139209795D01*
X57885289Y-139174931D01*
X58055465Y-139065425D01*
X58169630Y-138898339D01*
X58209795Y-138700000D01*
X58209795Y-136300000D01*
X58174931Y-136114711D01*
X58065425Y-135944535D01*
X57898339Y-135830370D01*
X57700000Y-135790205D01*
X55300000Y-135790205D01*
X55114711Y-135825069D01*
X54944535Y-135934575D01*
X54830370Y-136101661D01*
X54790205Y-136300000D01*
X50575000Y-136300000D01*
X50575000Y-121925000D01*
X54800000Y-121925000D01*
X54800000Y-122799456D01*
X54876121Y-122983227D01*
X55016773Y-123123880D01*
X55200544Y-123200000D01*
X56075000Y-123200000D01*
X56200000Y-123075000D01*
X56200000Y-121800000D01*
X56800000Y-121800000D01*
X56800000Y-123075000D01*
X56925000Y-123200000D01*
X57799456Y-123200000D01*
X57983227Y-123123880D01*
X58123879Y-122983227D01*
X58200000Y-122799456D01*
X58200000Y-121925000D01*
X58075000Y-121800000D01*
X56800000Y-121800000D01*
X56200000Y-121800000D01*
X54925000Y-121800000D01*
X54800000Y-121925000D01*
X50575000Y-121925000D01*
X50575000Y-120200544D01*
X54800000Y-120200544D01*
X54800000Y-121075000D01*
X54925000Y-121200000D01*
X56200000Y-121200000D01*
X56200000Y-119925000D01*
X56800000Y-119925000D01*
X56800000Y-121200000D01*
X58075000Y-121200000D01*
X58200000Y-121075000D01*
X58200000Y-120200544D01*
X58123879Y-120016773D01*
X57983227Y-119876120D01*
X57799456Y-119800000D01*
X56925000Y-119800000D01*
X56800000Y-119925000D01*
X56200000Y-119925000D01*
X56075000Y-119800000D01*
X55200544Y-119800000D01*
X55016773Y-119876120D01*
X54876121Y-120016773D01*
X54800000Y-120200544D01*
X50575000Y-120200544D01*
X50575000Y-115829416D01*
X54094848Y-115829416D01*
X54239270Y-116057446D01*
X54893185Y-116230011D01*
X55563362Y-116139198D01*
X55760730Y-116057446D01*
X55905152Y-115829416D01*
X55000000Y-114924264D01*
X54094848Y-115829416D01*
X50575000Y-115829416D01*
X50575000Y-114393185D01*
X53269989Y-114393185D01*
X53360802Y-115063362D01*
X53442554Y-115260730D01*
X53670584Y-115405152D01*
X54575736Y-114500000D01*
X55424264Y-114500000D01*
X56329416Y-115405152D01*
X56557446Y-115260730D01*
X56730011Y-114606815D01*
X56639198Y-113936638D01*
X56557446Y-113739270D01*
X56329416Y-113594848D01*
X55424264Y-114500000D01*
X54575736Y-114500000D01*
X53670584Y-113594848D01*
X53442554Y-113739270D01*
X53269989Y-114393185D01*
X50575000Y-114393185D01*
X50575000Y-113170584D01*
X54094848Y-113170584D01*
X55000000Y-114075736D01*
X55905152Y-113170584D01*
X55760730Y-112942554D01*
X55106815Y-112769989D01*
X54436638Y-112860802D01*
X54239270Y-112942554D01*
X54094848Y-113170584D01*
X50575000Y-113170584D01*
X50575000Y-109800000D01*
X53290205Y-109800000D01*
X53290205Y-112200000D01*
X53325069Y-112385289D01*
X53434575Y-112555465D01*
X53601661Y-112669630D01*
X53800000Y-112709795D01*
X56200000Y-112709795D01*
X56385289Y-112674931D01*
X56555465Y-112565425D01*
X56669630Y-112398339D01*
X56709795Y-112200000D01*
X56709795Y-109800000D01*
X56674931Y-109614711D01*
X56565425Y-109444535D01*
X56398339Y-109330370D01*
X56200000Y-109290205D01*
X53800000Y-109290205D01*
X53614711Y-109325069D01*
X53444535Y-109434575D01*
X53330370Y-109601661D01*
X53290205Y-109800000D01*
X50575000Y-109800000D01*
X50575000Y-105829416D01*
X57094848Y-105829416D01*
X57239270Y-106057446D01*
X57893185Y-106230011D01*
X58563362Y-106139198D01*
X58760730Y-106057446D01*
X58905152Y-105829416D01*
X58000000Y-104924264D01*
X57094848Y-105829416D01*
X50575000Y-105829416D01*
X50575000Y-103435687D01*
X50799619Y-103435687D01*
X51133843Y-104244572D01*
X51752173Y-104863982D01*
X52560473Y-105199618D01*
X53435687Y-105200381D01*
X54244572Y-104866157D01*
X54718370Y-104393185D01*
X56269989Y-104393185D01*
X56360802Y-105063362D01*
X56442554Y-105260730D01*
X56670584Y-105405152D01*
X57575736Y-104500000D01*
X58424264Y-104500000D01*
X59329416Y-105405152D01*
X59557446Y-105260730D01*
X59730011Y-104606815D01*
X59639198Y-103936638D01*
X59557446Y-103739270D01*
X59329416Y-103594848D01*
X58424264Y-104500000D01*
X57575736Y-104500000D01*
X56670584Y-103594848D01*
X56442554Y-103739270D01*
X56269989Y-104393185D01*
X54718370Y-104393185D01*
X54863982Y-104247827D01*
X55199618Y-103439527D01*
X55199852Y-103170584D01*
X57094848Y-103170584D01*
X58000000Y-104075736D01*
X58905152Y-103170584D01*
X58760730Y-102942554D01*
X58106815Y-102769989D01*
X57436638Y-102860802D01*
X57239270Y-102942554D01*
X57094848Y-103170584D01*
X55199852Y-103170584D01*
X55200381Y-102564313D01*
X54866157Y-101755428D01*
X54247827Y-101136018D01*
X53439527Y-100800382D01*
X52564313Y-100799619D01*
X51755428Y-101133843D01*
X51136018Y-101752173D01*
X50800382Y-102560473D01*
X50799619Y-103435687D01*
X50575000Y-103435687D01*
X50575000Y-100575000D01*
X59907271Y-100575000D01*
X59937273Y-102945203D01*
X59937273Y-102945203D01*
G37*
X59937273Y-102945203D02*
X59830370Y-103101661D01*
X59790205Y-103300000D01*
X59790205Y-105700000D01*
X59825069Y-105885289D01*
X59934575Y-106055465D01*
X59977011Y-106084460D01*
X60400008Y-139501266D01*
X60408378Y-139540068D01*
X60431186Y-139572558D01*
X60464836Y-139593614D01*
X60500000Y-139600000D01*
X85900000Y-139600000D01*
X85900000Y-149425000D01*
X50575000Y-149425000D01*
X50575000Y-147435687D01*
X50799619Y-147435687D01*
X51133843Y-148244572D01*
X51752173Y-148863982D01*
X52560473Y-149199618D01*
X53435687Y-149200381D01*
X54244572Y-148866157D01*
X54863982Y-148247827D01*
X55199618Y-147439527D01*
X55200381Y-146564313D01*
X54866157Y-145755428D01*
X54247827Y-145136018D01*
X53439527Y-144800382D01*
X52564313Y-144799619D01*
X51755428Y-145133843D01*
X51136018Y-145752173D01*
X50800382Y-146560473D01*
X50799619Y-147435687D01*
X50575000Y-147435687D01*
X50575000Y-143800000D01*
X55790205Y-143800000D01*
X55790205Y-146200000D01*
X55825069Y-146385289D01*
X55934575Y-146555465D01*
X56101661Y-146669630D01*
X56300000Y-146709795D01*
X58700000Y-146709795D01*
X58885289Y-146674931D01*
X59055465Y-146565425D01*
X59169630Y-146398339D01*
X59183587Y-146329416D01*
X60094848Y-146329416D01*
X60239270Y-146557446D01*
X60893185Y-146730011D01*
X61563362Y-146639198D01*
X61760730Y-146557446D01*
X61905152Y-146329416D01*
X61000000Y-145424264D01*
X60094848Y-146329416D01*
X59183587Y-146329416D01*
X59209795Y-146200000D01*
X59209795Y-144893185D01*
X59269989Y-144893185D01*
X59360802Y-145563362D01*
X59442554Y-145760730D01*
X59670584Y-145905152D01*
X60575736Y-145000000D01*
X61424264Y-145000000D01*
X62329416Y-145905152D01*
X62557446Y-145760730D01*
X62730011Y-145106815D01*
X62639198Y-144436638D01*
X62557446Y-144239270D01*
X62329416Y-144094848D01*
X61424264Y-145000000D01*
X60575736Y-145000000D01*
X59670584Y-144094848D01*
X59442554Y-144239270D01*
X59269989Y-144893185D01*
X59209795Y-144893185D01*
X59209795Y-143800000D01*
X59185445Y-143670584D01*
X60094848Y-143670584D01*
X61000000Y-144575736D01*
X61775736Y-143800000D01*
X63290205Y-143800000D01*
X63290205Y-146200000D01*
X63325069Y-146385289D01*
X63434575Y-146555465D01*
X63601661Y-146669630D01*
X63800000Y-146709795D01*
X66200000Y-146709795D01*
X66385289Y-146674931D01*
X66555465Y-146565425D01*
X66669630Y-146398339D01*
X66683587Y-146329416D01*
X67594848Y-146329416D01*
X67739270Y-146557446D01*
X68393185Y-146730011D01*
X69063362Y-146639198D01*
X69260730Y-146557446D01*
X69405152Y-146329416D01*
X68500000Y-145424264D01*
X67594848Y-146329416D01*
X66683587Y-146329416D01*
X66709795Y-146200000D01*
X66709795Y-144893185D01*
X66769989Y-144893185D01*
X66860802Y-145563362D01*
X66942554Y-145760730D01*
X67170584Y-145905152D01*
X68075736Y-145000000D01*
X68924264Y-145000000D01*
X69829416Y-145905152D01*
X70057446Y-145760730D01*
X70230011Y-145106815D01*
X70139198Y-144436638D01*
X70057446Y-144239270D01*
X69829416Y-144094848D01*
X68924264Y-145000000D01*
X68075736Y-145000000D01*
X67170584Y-144094848D01*
X66942554Y-144239270D01*
X66769989Y-144893185D01*
X66709795Y-144893185D01*
X66709795Y-143800000D01*
X66685445Y-143670584D01*
X67594848Y-143670584D01*
X68500000Y-144575736D01*
X69275736Y-143800000D01*
X70790205Y-143800000D01*
X70790205Y-146200000D01*
X70825069Y-146385289D01*
X70934575Y-146555465D01*
X71101661Y-146669630D01*
X71300000Y-146709795D01*
X73700000Y-146709795D01*
X73885289Y-146674931D01*
X74055465Y-146565425D01*
X74169630Y-146398339D01*
X74183587Y-146329416D01*
X75094848Y-146329416D01*
X75239270Y-146557446D01*
X75893185Y-146730011D01*
X76563362Y-146639198D01*
X76760730Y-146557446D01*
X76905152Y-146329416D01*
X76000000Y-145424264D01*
X75094848Y-146329416D01*
X74183587Y-146329416D01*
X74209795Y-146200000D01*
X74209795Y-144893185D01*
X74269989Y-144893185D01*
X74360802Y-145563362D01*
X74442554Y-145760730D01*
X74670584Y-145905152D01*
X75575736Y-145000000D01*
X76424264Y-145000000D01*
X77329416Y-145905152D01*
X77557446Y-145760730D01*
X77730011Y-145106815D01*
X77639198Y-144436638D01*
X77557446Y-144239270D01*
X77329416Y-144094848D01*
X76424264Y-145000000D01*
X75575736Y-145000000D01*
X74670584Y-144094848D01*
X74442554Y-144239270D01*
X74269989Y-144893185D01*
X74209795Y-144893185D01*
X74209795Y-143800000D01*
X74185445Y-143670584D01*
X75094848Y-143670584D01*
X76000000Y-144575736D01*
X76775736Y-143800000D01*
X78290205Y-143800000D01*
X78290205Y-146200000D01*
X78325069Y-146385289D01*
X78434575Y-146555465D01*
X78601661Y-146669630D01*
X78800000Y-146709795D01*
X81200000Y-146709795D01*
X81385289Y-146674931D01*
X81555465Y-146565425D01*
X81669630Y-146398339D01*
X81683587Y-146329416D01*
X82594848Y-146329416D01*
X82739270Y-146557446D01*
X83393185Y-146730011D01*
X84063362Y-146639198D01*
X84260730Y-146557446D01*
X84405152Y-146329416D01*
X83500000Y-145424264D01*
X82594848Y-146329416D01*
X81683587Y-146329416D01*
X81709795Y-146200000D01*
X81709795Y-144893185D01*
X81769989Y-144893185D01*
X81860802Y-145563362D01*
X81942554Y-145760730D01*
X82170584Y-145905152D01*
X83075736Y-145000000D01*
X83924264Y-145000000D01*
X84829416Y-145905152D01*
X85057446Y-145760730D01*
X85230011Y-145106815D01*
X85139198Y-144436638D01*
X85057446Y-144239270D01*
X84829416Y-144094848D01*
X83924264Y-145000000D01*
X83075736Y-145000000D01*
X82170584Y-144094848D01*
X81942554Y-144239270D01*
X81769989Y-144893185D01*
X81709795Y-144893185D01*
X81709795Y-143800000D01*
X81685445Y-143670584D01*
X82594848Y-143670584D01*
X83500000Y-144575736D01*
X84405152Y-143670584D01*
X84260730Y-143442554D01*
X83606815Y-143269989D01*
X82936638Y-143360802D01*
X82739270Y-143442554D01*
X82594848Y-143670584D01*
X81685445Y-143670584D01*
X81674931Y-143614711D01*
X81565425Y-143444535D01*
X81398339Y-143330370D01*
X81200000Y-143290205D01*
X78800000Y-143290205D01*
X78614711Y-143325069D01*
X78444535Y-143434575D01*
X78330370Y-143601661D01*
X78290205Y-143800000D01*
X76775736Y-143800000D01*
X76905152Y-143670584D01*
X76760730Y-143442554D01*
X76106815Y-143269989D01*
X75436638Y-143360802D01*
X75239270Y-143442554D01*
X75094848Y-143670584D01*
X74185445Y-143670584D01*
X74174931Y-143614711D01*
X74065425Y-143444535D01*
X73898339Y-143330370D01*
X73700000Y-143290205D01*
X71300000Y-143290205D01*
X71114711Y-143325069D01*
X70944535Y-143434575D01*
X70830370Y-143601661D01*
X70790205Y-143800000D01*
X69275736Y-143800000D01*
X69405152Y-143670584D01*
X69260730Y-143442554D01*
X68606815Y-143269989D01*
X67936638Y-143360802D01*
X67739270Y-143442554D01*
X67594848Y-143670584D01*
X66685445Y-143670584D01*
X66674931Y-143614711D01*
X66565425Y-143444535D01*
X66398339Y-143330370D01*
X66200000Y-143290205D01*
X63800000Y-143290205D01*
X63614711Y-143325069D01*
X63444535Y-143434575D01*
X63330370Y-143601661D01*
X63290205Y-143800000D01*
X61775736Y-143800000D01*
X61905152Y-143670584D01*
X61760730Y-143442554D01*
X61106815Y-143269989D01*
X60436638Y-143360802D01*
X60239270Y-143442554D01*
X60094848Y-143670584D01*
X59185445Y-143670584D01*
X59174931Y-143614711D01*
X59065425Y-143444535D01*
X58898339Y-143330370D01*
X58700000Y-143290205D01*
X56300000Y-143290205D01*
X56114711Y-143325069D01*
X55944535Y-143434575D01*
X55830370Y-143601661D01*
X55790205Y-143800000D01*
X50575000Y-143800000D01*
X50575000Y-136300000D01*
X54790205Y-136300000D01*
X54790205Y-138700000D01*
X54825069Y-138885289D01*
X54934575Y-139055465D01*
X55101661Y-139169630D01*
X55300000Y-139209795D01*
X57700000Y-139209795D01*
X57885289Y-139174931D01*
X58055465Y-139065425D01*
X58169630Y-138898339D01*
X58209795Y-138700000D01*
X58209795Y-136300000D01*
X58174931Y-136114711D01*
X58065425Y-135944535D01*
X57898339Y-135830370D01*
X57700000Y-135790205D01*
X55300000Y-135790205D01*
X55114711Y-135825069D01*
X54944535Y-135934575D01*
X54830370Y-136101661D01*
X54790205Y-136300000D01*
X50575000Y-136300000D01*
X50575000Y-121925000D01*
X54800000Y-121925000D01*
X54800000Y-122799456D01*
X54876121Y-122983227D01*
X55016773Y-123123880D01*
X55200544Y-123200000D01*
X56075000Y-123200000D01*
X56200000Y-123075000D01*
X56200000Y-121800000D01*
X56800000Y-121800000D01*
X56800000Y-123075000D01*
X56925000Y-123200000D01*
X57799456Y-123200000D01*
X57983227Y-123123880D01*
X58123879Y-122983227D01*
X58200000Y-122799456D01*
X58200000Y-121925000D01*
X58075000Y-121800000D01*
X56800000Y-121800000D01*
X56200000Y-121800000D01*
X54925000Y-121800000D01*
X54800000Y-121925000D01*
X50575000Y-121925000D01*
X50575000Y-120200544D01*
X54800000Y-120200544D01*
X54800000Y-121075000D01*
X54925000Y-121200000D01*
X56200000Y-121200000D01*
X56200000Y-119925000D01*
X56800000Y-119925000D01*
X56800000Y-121200000D01*
X58075000Y-121200000D01*
X58200000Y-121075000D01*
X58200000Y-120200544D01*
X58123879Y-120016773D01*
X57983227Y-119876120D01*
X57799456Y-119800000D01*
X56925000Y-119800000D01*
X56800000Y-119925000D01*
X56200000Y-119925000D01*
X56075000Y-119800000D01*
X55200544Y-119800000D01*
X55016773Y-119876120D01*
X54876121Y-120016773D01*
X54800000Y-120200544D01*
X50575000Y-120200544D01*
X50575000Y-115829416D01*
X54094848Y-115829416D01*
X54239270Y-116057446D01*
X54893185Y-116230011D01*
X55563362Y-116139198D01*
X55760730Y-116057446D01*
X55905152Y-115829416D01*
X55000000Y-114924264D01*
X54094848Y-115829416D01*
X50575000Y-115829416D01*
X50575000Y-114393185D01*
X53269989Y-114393185D01*
X53360802Y-115063362D01*
X53442554Y-115260730D01*
X53670584Y-115405152D01*
X54575736Y-114500000D01*
X55424264Y-114500000D01*
X56329416Y-115405152D01*
X56557446Y-115260730D01*
X56730011Y-114606815D01*
X56639198Y-113936638D01*
X56557446Y-113739270D01*
X56329416Y-113594848D01*
X55424264Y-114500000D01*
X54575736Y-114500000D01*
X53670584Y-113594848D01*
X53442554Y-113739270D01*
X53269989Y-114393185D01*
X50575000Y-114393185D01*
X50575000Y-113170584D01*
X54094848Y-113170584D01*
X55000000Y-114075736D01*
X55905152Y-113170584D01*
X55760730Y-112942554D01*
X55106815Y-112769989D01*
X54436638Y-112860802D01*
X54239270Y-112942554D01*
X54094848Y-113170584D01*
X50575000Y-113170584D01*
X50575000Y-109800000D01*
X53290205Y-109800000D01*
X53290205Y-112200000D01*
X53325069Y-112385289D01*
X53434575Y-112555465D01*
X53601661Y-112669630D01*
X53800000Y-112709795D01*
X56200000Y-112709795D01*
X56385289Y-112674931D01*
X56555465Y-112565425D01*
X56669630Y-112398339D01*
X56709795Y-112200000D01*
X56709795Y-109800000D01*
X56674931Y-109614711D01*
X56565425Y-109444535D01*
X56398339Y-109330370D01*
X56200000Y-109290205D01*
X53800000Y-109290205D01*
X53614711Y-109325069D01*
X53444535Y-109434575D01*
X53330370Y-109601661D01*
X53290205Y-109800000D01*
X50575000Y-109800000D01*
X50575000Y-105829416D01*
X57094848Y-105829416D01*
X57239270Y-106057446D01*
X57893185Y-106230011D01*
X58563362Y-106139198D01*
X58760730Y-106057446D01*
X58905152Y-105829416D01*
X58000000Y-104924264D01*
X57094848Y-105829416D01*
X50575000Y-105829416D01*
X50575000Y-103435687D01*
X50799619Y-103435687D01*
X51133843Y-104244572D01*
X51752173Y-104863982D01*
X52560473Y-105199618D01*
X53435687Y-105200381D01*
X54244572Y-104866157D01*
X54718370Y-104393185D01*
X56269989Y-104393185D01*
X56360802Y-105063362D01*
X56442554Y-105260730D01*
X56670584Y-105405152D01*
X57575736Y-104500000D01*
X58424264Y-104500000D01*
X59329416Y-105405152D01*
X59557446Y-105260730D01*
X59730011Y-104606815D01*
X59639198Y-103936638D01*
X59557446Y-103739270D01*
X59329416Y-103594848D01*
X58424264Y-104500000D01*
X57575736Y-104500000D01*
X56670584Y-103594848D01*
X56442554Y-103739270D01*
X56269989Y-104393185D01*
X54718370Y-104393185D01*
X54863982Y-104247827D01*
X55199618Y-103439527D01*
X55199852Y-103170584D01*
X57094848Y-103170584D01*
X58000000Y-104075736D01*
X58905152Y-103170584D01*
X58760730Y-102942554D01*
X58106815Y-102769989D01*
X57436638Y-102860802D01*
X57239270Y-102942554D01*
X57094848Y-103170584D01*
X55199852Y-103170584D01*
X55200381Y-102564313D01*
X54866157Y-101755428D01*
X54247827Y-101136018D01*
X53439527Y-100800382D01*
X52564313Y-100799619D01*
X51755428Y-101133843D01*
X51136018Y-101752173D01*
X50800382Y-102560473D01*
X50799619Y-103435687D01*
X50575000Y-103435687D01*
X50575000Y-100575000D01*
X59907271Y-100575000D01*
X59937273Y-102945203D01*
G36*
X99425000Y-149425000D02*
X90600000Y-149425000D01*
X90600000Y-147435687D01*
X94799619Y-147435687D01*
X95133843Y-148244572D01*
X95752173Y-148863982D01*
X96560473Y-149199618D01*
X97435687Y-149200381D01*
X98244572Y-148866157D01*
X98863982Y-148247827D01*
X99199618Y-147439527D01*
X99200381Y-146564313D01*
X98866157Y-145755428D01*
X98247827Y-145136018D01*
X97439527Y-144800382D01*
X96564313Y-144799619D01*
X95755428Y-145133843D01*
X95136018Y-145752173D01*
X94800382Y-146560473D01*
X94799619Y-147435687D01*
X90600000Y-147435687D01*
X90600000Y-146500246D01*
X90669630Y-146398339D01*
X90683587Y-146329416D01*
X91594848Y-146329416D01*
X91739270Y-146557446D01*
X92393185Y-146730011D01*
X93063362Y-146639198D01*
X93260730Y-146557446D01*
X93405152Y-146329416D01*
X92500000Y-145424264D01*
X91594848Y-146329416D01*
X90683587Y-146329416D01*
X90709795Y-146200000D01*
X90709795Y-144893185D01*
X90769989Y-144893185D01*
X90860802Y-145563362D01*
X90942554Y-145760730D01*
X91170584Y-145905152D01*
X92075736Y-145000000D01*
X92924264Y-145000000D01*
X93829416Y-145905152D01*
X94057446Y-145760730D01*
X94230011Y-145106815D01*
X94139198Y-144436638D01*
X94057446Y-144239270D01*
X93829416Y-144094848D01*
X92924264Y-145000000D01*
X92075736Y-145000000D01*
X91170584Y-144094848D01*
X90942554Y-144239270D01*
X90769989Y-144893185D01*
X90709795Y-144893185D01*
X90709795Y-143800000D01*
X90685445Y-143670584D01*
X91594848Y-143670584D01*
X92500000Y-144575736D01*
X93405152Y-143670584D01*
X93260730Y-143442554D01*
X92606815Y-143269989D01*
X91936638Y-143360802D01*
X91739270Y-143442554D01*
X91594848Y-143670584D01*
X90685445Y-143670584D01*
X90674931Y-143614711D01*
X90600000Y-143498266D01*
X90600000Y-136300000D01*
X92790205Y-136300000D01*
X92790205Y-138700000D01*
X92825069Y-138885289D01*
X92934575Y-139055465D01*
X93101661Y-139169630D01*
X93300000Y-139209795D01*
X95700000Y-139209795D01*
X95885289Y-139174931D01*
X96055465Y-139065425D01*
X96169630Y-138898339D01*
X96209795Y-138700000D01*
X96209795Y-136300000D01*
X96174931Y-136114711D01*
X96065425Y-135944535D01*
X95898339Y-135830370D01*
X95700000Y-135790205D01*
X93300000Y-135790205D01*
X93114711Y-135825069D01*
X92944535Y-135934575D01*
X92830370Y-136101661D01*
X92790205Y-136300000D01*
X90600000Y-136300000D01*
X90600000Y-121925000D01*
X92800000Y-121925000D01*
X92800000Y-122799456D01*
X92876121Y-122983227D01*
X93016773Y-123123880D01*
X93200544Y-123200000D01*
X94075000Y-123200000D01*
X94200000Y-123075000D01*
X94200000Y-121800000D01*
X94800000Y-121800000D01*
X94800000Y-123075000D01*
X94925000Y-123200000D01*
X95799456Y-123200000D01*
X95983227Y-123123880D01*
X96123879Y-122983227D01*
X96200000Y-122799456D01*
X96200000Y-121925000D01*
X96075000Y-121800000D01*
X94800000Y-121800000D01*
X94200000Y-121800000D01*
X92925000Y-121800000D01*
X92800000Y-121925000D01*
X90600000Y-121925000D01*
X90600000Y-120200544D01*
X92800000Y-120200544D01*
X92800000Y-121075000D01*
X92925000Y-121200000D01*
X94200000Y-121200000D01*
X94200000Y-119925000D01*
X94800000Y-119925000D01*
X94800000Y-121200000D01*
X96075000Y-121200000D01*
X96200000Y-121075000D01*
X96200000Y-120200544D01*
X96123879Y-120016773D01*
X95983227Y-119876120D01*
X95799456Y-119800000D01*
X94925000Y-119800000D01*
X94800000Y-119925000D01*
X94200000Y-119925000D01*
X94075000Y-119800000D01*
X93200544Y-119800000D01*
X93016773Y-119876120D01*
X92876121Y-120016773D01*
X92800000Y-120200544D01*
X90600000Y-120200544D01*
X90600000Y-113300000D01*
X93290205Y-113300000D01*
X93290205Y-115700000D01*
X93325069Y-115885289D01*
X93434575Y-116055465D01*
X93601661Y-116169630D01*
X93800000Y-116209795D01*
X96200000Y-116209795D01*
X96385289Y-116174931D01*
X96555465Y-116065425D01*
X96669630Y-115898339D01*
X96709795Y-115700000D01*
X96709795Y-113300000D01*
X96674931Y-113114711D01*
X96565425Y-112944535D01*
X96398339Y-112830370D01*
X96200000Y-112790205D01*
X93800000Y-112790205D01*
X93614711Y-112825069D01*
X93444535Y-112934575D01*
X93330370Y-113101661D01*
X93290205Y-113300000D01*
X90600000Y-113300000D01*
X90600000Y-112329416D01*
X94094848Y-112329416D01*
X94239270Y-112557446D01*
X94893185Y-112730011D01*
X95563362Y-112639198D01*
X95760730Y-112557446D01*
X95905152Y-112329416D01*
X95000000Y-111424264D01*
X94094848Y-112329416D01*
X90600000Y-112329416D01*
X90600000Y-110893185D01*
X93269989Y-110893185D01*
X93360802Y-111563362D01*
X93442554Y-111760730D01*
X93670584Y-111905152D01*
X94575736Y-111000000D01*
X95424264Y-111000000D01*
X96329416Y-111905152D01*
X96557446Y-111760730D01*
X96730011Y-111106815D01*
X96639198Y-110436638D01*
X96557446Y-110239270D01*
X96329416Y-110094848D01*
X95424264Y-111000000D01*
X94575736Y-111000000D01*
X93670584Y-110094848D01*
X93442554Y-110239270D01*
X93269989Y-110893185D01*
X90600000Y-110893185D01*
X90600000Y-109670584D01*
X94094848Y-109670584D01*
X95000000Y-110575736D01*
X95905152Y-109670584D01*
X95760730Y-109442554D01*
X95106815Y-109269989D01*
X94436638Y-109360802D01*
X94239270Y-109442554D01*
X94094848Y-109670584D01*
X90600000Y-109670584D01*
X90600000Y-107500000D01*
X90592121Y-107461094D01*
X90569727Y-107428319D01*
X90536346Y-107406839D01*
X90500000Y-107400000D01*
X83141874Y-107400000D01*
X81571290Y-105829416D01*
X87594848Y-105829416D01*
X87739270Y-106057446D01*
X88393185Y-106230011D01*
X89063362Y-106139198D01*
X89260730Y-106057446D01*
X89405152Y-105829416D01*
X88500000Y-104924264D01*
X87594848Y-105829416D01*
X81571290Y-105829416D01*
X80925000Y-105183126D01*
X80925000Y-104393185D01*
X86769989Y-104393185D01*
X86860802Y-105063362D01*
X86942554Y-105260730D01*
X87170584Y-105405152D01*
X88075736Y-104500000D01*
X88924264Y-104500000D01*
X89829416Y-105405152D01*
X90057446Y-105260730D01*
X90230011Y-104606815D01*
X90139198Y-103936638D01*
X90057446Y-103739270D01*
X89829416Y-103594848D01*
X88924264Y-104500000D01*
X88075736Y-104500000D01*
X87170584Y-103594848D01*
X86942554Y-103739270D01*
X86769989Y-104393185D01*
X80925000Y-104393185D01*
X80925000Y-104279419D01*
X81124211Y-104146311D01*
X81419802Y-103703927D01*
X81523600Y-103182100D01*
X81523600Y-103170584D01*
X87594848Y-103170584D01*
X88500000Y-104075736D01*
X89275736Y-103300000D01*
X90290205Y-103300000D01*
X90290205Y-105700000D01*
X90325069Y-105885289D01*
X90434575Y-106055465D01*
X90601661Y-106169630D01*
X90800000Y-106209795D01*
X93200000Y-106209795D01*
X93385289Y-106174931D01*
X93555465Y-106065425D01*
X93669630Y-105898339D01*
X93709795Y-105700000D01*
X93709795Y-103435687D01*
X94799619Y-103435687D01*
X95133843Y-104244572D01*
X95752173Y-104863982D01*
X96560473Y-105199618D01*
X97435687Y-105200381D01*
X98244572Y-104866157D01*
X98863982Y-104247827D01*
X99199618Y-103439527D01*
X99200381Y-102564313D01*
X98866157Y-101755428D01*
X98247827Y-101136018D01*
X97439527Y-100800382D01*
X96564313Y-100799619D01*
X95755428Y-101133843D01*
X95136018Y-101752173D01*
X94800382Y-102560473D01*
X94799619Y-103435687D01*
X93709795Y-103435687D01*
X93709795Y-103300000D01*
X93674931Y-103114711D01*
X93565425Y-102944535D01*
X93398339Y-102830370D01*
X93200000Y-102790205D01*
X90800000Y-102790205D01*
X90614711Y-102825069D01*
X90444535Y-102934575D01*
X90330370Y-103101661D01*
X90290205Y-103300000D01*
X89275736Y-103300000D01*
X89405152Y-103170584D01*
X89260730Y-102942554D01*
X88606815Y-102769989D01*
X87936638Y-102860802D01*
X87739270Y-102942554D01*
X87594848Y-103170584D01*
X81523600Y-103170584D01*
X81523600Y-102817900D01*
X81419802Y-102296073D01*
X81124211Y-101853689D01*
X80681827Y-101558098D01*
X80160000Y-101454300D01*
X79638173Y-101558098D01*
X79195789Y-101853689D01*
X78900198Y-102296073D01*
X78880288Y-102396169D01*
X78691622Y-102017799D01*
X78292499Y-101670872D01*
X78124394Y-101580717D01*
X77920000Y-101645880D01*
X77920000Y-102700000D01*
X77940000Y-102700000D01*
X77940000Y-103300000D01*
X77920000Y-103300000D01*
X77920000Y-104354120D01*
X78124394Y-104419283D01*
X78292499Y-104329128D01*
X78691622Y-103982201D01*
X78880288Y-103603831D01*
X78900198Y-103703927D01*
X79195789Y-104146311D01*
X79395000Y-104279419D01*
X79395000Y-104900000D01*
X75845000Y-104900000D01*
X75845000Y-104279419D01*
X76044211Y-104146311D01*
X76339802Y-103703927D01*
X76359712Y-103603831D01*
X76548378Y-103982201D01*
X76947501Y-104329128D01*
X77115606Y-104419283D01*
X77320000Y-104354120D01*
X77320000Y-103300000D01*
X77300000Y-103300000D01*
X77300000Y-102700000D01*
X77320000Y-102700000D01*
X77320000Y-101645880D01*
X77115606Y-101580717D01*
X76947501Y-101670872D01*
X76548378Y-102017799D01*
X76359712Y-102396169D01*
X76339802Y-102296073D01*
X76044211Y-101853689D01*
X75601827Y-101558098D01*
X75080000Y-101454300D01*
X74558173Y-101558098D01*
X74115789Y-101853689D01*
X73820198Y-102296073D01*
X73810000Y-102347342D01*
X73799802Y-102296073D01*
X73504211Y-101853689D01*
X73061827Y-101558098D01*
X72540000Y-101454300D01*
X72018173Y-101558098D01*
X71575789Y-101853689D01*
X71363600Y-102171253D01*
X71363600Y-101884544D01*
X71287480Y-101700773D01*
X71146827Y-101560121D01*
X70963056Y-101484000D01*
X70425000Y-101484000D01*
X70300000Y-101609000D01*
X70300000Y-102700000D01*
X70320000Y-102700000D01*
X70320000Y-103300000D01*
X70300000Y-103300000D01*
X70300000Y-104391000D01*
X70425000Y-104516000D01*
X70963056Y-104516000D01*
X71146827Y-104439879D01*
X71287480Y-104299227D01*
X71363600Y-104115456D01*
X71363600Y-103828747D01*
X71575789Y-104146311D01*
X71775000Y-104279419D01*
X71775000Y-104900000D01*
X68100000Y-104900000D01*
X68100000Y-103425000D01*
X68636400Y-103425000D01*
X68636400Y-104115456D01*
X68712520Y-104299227D01*
X68853173Y-104439879D01*
X69036944Y-104516000D01*
X69575000Y-104516000D01*
X69700000Y-104391000D01*
X69700000Y-103300000D01*
X68761400Y-103300000D01*
X68636400Y-103425000D01*
X68100000Y-103425000D01*
X68100000Y-101884544D01*
X68636400Y-101884544D01*
X68636400Y-102575000D01*
X68761400Y-102700000D01*
X69700000Y-102700000D01*
X69700000Y-101609000D01*
X69575000Y-101484000D01*
X69036944Y-101484000D01*
X68853173Y-101560121D01*
X68712520Y-101700773D01*
X68636400Y-101884544D01*
X68100000Y-101884544D01*
X68100000Y-100575000D01*
X99425000Y-100575000D01*
X99425000Y-149425000D01*
X99425000Y-149425000D01*
G37*
X99425000Y-149425000D02*
X90600000Y-149425000D01*
X90600000Y-147435687D01*
X94799619Y-147435687D01*
X95133843Y-148244572D01*
X95752173Y-148863982D01*
X96560473Y-149199618D01*
X97435687Y-149200381D01*
X98244572Y-148866157D01*
X98863982Y-148247827D01*
X99199618Y-147439527D01*
X99200381Y-146564313D01*
X98866157Y-145755428D01*
X98247827Y-145136018D01*
X97439527Y-144800382D01*
X96564313Y-144799619D01*
X95755428Y-145133843D01*
X95136018Y-145752173D01*
X94800382Y-146560473D01*
X94799619Y-147435687D01*
X90600000Y-147435687D01*
X90600000Y-146500246D01*
X90669630Y-146398339D01*
X90683587Y-146329416D01*
X91594848Y-146329416D01*
X91739270Y-146557446D01*
X92393185Y-146730011D01*
X93063362Y-146639198D01*
X93260730Y-146557446D01*
X93405152Y-146329416D01*
X92500000Y-145424264D01*
X91594848Y-146329416D01*
X90683587Y-146329416D01*
X90709795Y-146200000D01*
X90709795Y-144893185D01*
X90769989Y-144893185D01*
X90860802Y-145563362D01*
X90942554Y-145760730D01*
X91170584Y-145905152D01*
X92075736Y-145000000D01*
X92924264Y-145000000D01*
X93829416Y-145905152D01*
X94057446Y-145760730D01*
X94230011Y-145106815D01*
X94139198Y-144436638D01*
X94057446Y-144239270D01*
X93829416Y-144094848D01*
X92924264Y-145000000D01*
X92075736Y-145000000D01*
X91170584Y-144094848D01*
X90942554Y-144239270D01*
X90769989Y-144893185D01*
X90709795Y-144893185D01*
X90709795Y-143800000D01*
X90685445Y-143670584D01*
X91594848Y-143670584D01*
X92500000Y-144575736D01*
X93405152Y-143670584D01*
X93260730Y-143442554D01*
X92606815Y-143269989D01*
X91936638Y-143360802D01*
X91739270Y-143442554D01*
X91594848Y-143670584D01*
X90685445Y-143670584D01*
X90674931Y-143614711D01*
X90600000Y-143498266D01*
X90600000Y-136300000D01*
X92790205Y-136300000D01*
X92790205Y-138700000D01*
X92825069Y-138885289D01*
X92934575Y-139055465D01*
X93101661Y-139169630D01*
X93300000Y-139209795D01*
X95700000Y-139209795D01*
X95885289Y-139174931D01*
X96055465Y-139065425D01*
X96169630Y-138898339D01*
X96209795Y-138700000D01*
X96209795Y-136300000D01*
X96174931Y-136114711D01*
X96065425Y-135944535D01*
X95898339Y-135830370D01*
X95700000Y-135790205D01*
X93300000Y-135790205D01*
X93114711Y-135825069D01*
X92944535Y-135934575D01*
X92830370Y-136101661D01*
X92790205Y-136300000D01*
X90600000Y-136300000D01*
X90600000Y-121925000D01*
X92800000Y-121925000D01*
X92800000Y-122799456D01*
X92876121Y-122983227D01*
X93016773Y-123123880D01*
X93200544Y-123200000D01*
X94075000Y-123200000D01*
X94200000Y-123075000D01*
X94200000Y-121800000D01*
X94800000Y-121800000D01*
X94800000Y-123075000D01*
X94925000Y-123200000D01*
X95799456Y-123200000D01*
X95983227Y-123123880D01*
X96123879Y-122983227D01*
X96200000Y-122799456D01*
X96200000Y-121925000D01*
X96075000Y-121800000D01*
X94800000Y-121800000D01*
X94200000Y-121800000D01*
X92925000Y-121800000D01*
X92800000Y-121925000D01*
X90600000Y-121925000D01*
X90600000Y-120200544D01*
X92800000Y-120200544D01*
X92800000Y-121075000D01*
X92925000Y-121200000D01*
X94200000Y-121200000D01*
X94200000Y-119925000D01*
X94800000Y-119925000D01*
X94800000Y-121200000D01*
X96075000Y-121200000D01*
X96200000Y-121075000D01*
X96200000Y-120200544D01*
X96123879Y-120016773D01*
X95983227Y-119876120D01*
X95799456Y-119800000D01*
X94925000Y-119800000D01*
X94800000Y-119925000D01*
X94200000Y-119925000D01*
X94075000Y-119800000D01*
X93200544Y-119800000D01*
X93016773Y-119876120D01*
X92876121Y-120016773D01*
X92800000Y-120200544D01*
X90600000Y-120200544D01*
X90600000Y-113300000D01*
X93290205Y-113300000D01*
X93290205Y-115700000D01*
X93325069Y-115885289D01*
X93434575Y-116055465D01*
X93601661Y-116169630D01*
X93800000Y-116209795D01*
X96200000Y-116209795D01*
X96385289Y-116174931D01*
X96555465Y-116065425D01*
X96669630Y-115898339D01*
X96709795Y-115700000D01*
X96709795Y-113300000D01*
X96674931Y-113114711D01*
X96565425Y-112944535D01*
X96398339Y-112830370D01*
X96200000Y-112790205D01*
X93800000Y-112790205D01*
X93614711Y-112825069D01*
X93444535Y-112934575D01*
X93330370Y-113101661D01*
X93290205Y-113300000D01*
X90600000Y-113300000D01*
X90600000Y-112329416D01*
X94094848Y-112329416D01*
X94239270Y-112557446D01*
X94893185Y-112730011D01*
X95563362Y-112639198D01*
X95760730Y-112557446D01*
X95905152Y-112329416D01*
X95000000Y-111424264D01*
X94094848Y-112329416D01*
X90600000Y-112329416D01*
X90600000Y-110893185D01*
X93269989Y-110893185D01*
X93360802Y-111563362D01*
X93442554Y-111760730D01*
X93670584Y-111905152D01*
X94575736Y-111000000D01*
X95424264Y-111000000D01*
X96329416Y-111905152D01*
X96557446Y-111760730D01*
X96730011Y-111106815D01*
X96639198Y-110436638D01*
X96557446Y-110239270D01*
X96329416Y-110094848D01*
X95424264Y-111000000D01*
X94575736Y-111000000D01*
X93670584Y-110094848D01*
X93442554Y-110239270D01*
X93269989Y-110893185D01*
X90600000Y-110893185D01*
X90600000Y-109670584D01*
X94094848Y-109670584D01*
X95000000Y-110575736D01*
X95905152Y-109670584D01*
X95760730Y-109442554D01*
X95106815Y-109269989D01*
X94436638Y-109360802D01*
X94239270Y-109442554D01*
X94094848Y-109670584D01*
X90600000Y-109670584D01*
X90600000Y-107500000D01*
X90592121Y-107461094D01*
X90569727Y-107428319D01*
X90536346Y-107406839D01*
X90500000Y-107400000D01*
X83141874Y-107400000D01*
X81571290Y-105829416D01*
X87594848Y-105829416D01*
X87739270Y-106057446D01*
X88393185Y-106230011D01*
X89063362Y-106139198D01*
X89260730Y-106057446D01*
X89405152Y-105829416D01*
X88500000Y-104924264D01*
X87594848Y-105829416D01*
X81571290Y-105829416D01*
X80925000Y-105183126D01*
X80925000Y-104393185D01*
X86769989Y-104393185D01*
X86860802Y-105063362D01*
X86942554Y-105260730D01*
X87170584Y-105405152D01*
X88075736Y-104500000D01*
X88924264Y-104500000D01*
X89829416Y-105405152D01*
X90057446Y-105260730D01*
X90230011Y-104606815D01*
X90139198Y-103936638D01*
X90057446Y-103739270D01*
X89829416Y-103594848D01*
X88924264Y-104500000D01*
X88075736Y-104500000D01*
X87170584Y-103594848D01*
X86942554Y-103739270D01*
X86769989Y-104393185D01*
X80925000Y-104393185D01*
X80925000Y-104279419D01*
X81124211Y-104146311D01*
X81419802Y-103703927D01*
X81523600Y-103182100D01*
X81523600Y-103170584D01*
X87594848Y-103170584D01*
X88500000Y-104075736D01*
X89275736Y-103300000D01*
X90290205Y-103300000D01*
X90290205Y-105700000D01*
X90325069Y-105885289D01*
X90434575Y-106055465D01*
X90601661Y-106169630D01*
X90800000Y-106209795D01*
X93200000Y-106209795D01*
X93385289Y-106174931D01*
X93555465Y-106065425D01*
X93669630Y-105898339D01*
X93709795Y-105700000D01*
X93709795Y-103435687D01*
X94799619Y-103435687D01*
X95133843Y-104244572D01*
X95752173Y-104863982D01*
X96560473Y-105199618D01*
X97435687Y-105200381D01*
X98244572Y-104866157D01*
X98863982Y-104247827D01*
X99199618Y-103439527D01*
X99200381Y-102564313D01*
X98866157Y-101755428D01*
X98247827Y-101136018D01*
X97439527Y-100800382D01*
X96564313Y-100799619D01*
X95755428Y-101133843D01*
X95136018Y-101752173D01*
X94800382Y-102560473D01*
X94799619Y-103435687D01*
X93709795Y-103435687D01*
X93709795Y-103300000D01*
X93674931Y-103114711D01*
X93565425Y-102944535D01*
X93398339Y-102830370D01*
X93200000Y-102790205D01*
X90800000Y-102790205D01*
X90614711Y-102825069D01*
X90444535Y-102934575D01*
X90330370Y-103101661D01*
X90290205Y-103300000D01*
X89275736Y-103300000D01*
X89405152Y-103170584D01*
X89260730Y-102942554D01*
X88606815Y-102769989D01*
X87936638Y-102860802D01*
X87739270Y-102942554D01*
X87594848Y-103170584D01*
X81523600Y-103170584D01*
X81523600Y-102817900D01*
X81419802Y-102296073D01*
X81124211Y-101853689D01*
X80681827Y-101558098D01*
X80160000Y-101454300D01*
X79638173Y-101558098D01*
X79195789Y-101853689D01*
X78900198Y-102296073D01*
X78880288Y-102396169D01*
X78691622Y-102017799D01*
X78292499Y-101670872D01*
X78124394Y-101580717D01*
X77920000Y-101645880D01*
X77920000Y-102700000D01*
X77940000Y-102700000D01*
X77940000Y-103300000D01*
X77920000Y-103300000D01*
X77920000Y-104354120D01*
X78124394Y-104419283D01*
X78292499Y-104329128D01*
X78691622Y-103982201D01*
X78880288Y-103603831D01*
X78900198Y-103703927D01*
X79195789Y-104146311D01*
X79395000Y-104279419D01*
X79395000Y-104900000D01*
X75845000Y-104900000D01*
X75845000Y-104279419D01*
X76044211Y-104146311D01*
X76339802Y-103703927D01*
X76359712Y-103603831D01*
X76548378Y-103982201D01*
X76947501Y-104329128D01*
X77115606Y-104419283D01*
X77320000Y-104354120D01*
X77320000Y-103300000D01*
X77300000Y-103300000D01*
X77300000Y-102700000D01*
X77320000Y-102700000D01*
X77320000Y-101645880D01*
X77115606Y-101580717D01*
X76947501Y-101670872D01*
X76548378Y-102017799D01*
X76359712Y-102396169D01*
X76339802Y-102296073D01*
X76044211Y-101853689D01*
X75601827Y-101558098D01*
X75080000Y-101454300D01*
X74558173Y-101558098D01*
X74115789Y-101853689D01*
X73820198Y-102296073D01*
X73810000Y-102347342D01*
X73799802Y-102296073D01*
X73504211Y-101853689D01*
X73061827Y-101558098D01*
X72540000Y-101454300D01*
X72018173Y-101558098D01*
X71575789Y-101853689D01*
X71363600Y-102171253D01*
X71363600Y-101884544D01*
X71287480Y-101700773D01*
X71146827Y-101560121D01*
X70963056Y-101484000D01*
X70425000Y-101484000D01*
X70300000Y-101609000D01*
X70300000Y-102700000D01*
X70320000Y-102700000D01*
X70320000Y-103300000D01*
X70300000Y-103300000D01*
X70300000Y-104391000D01*
X70425000Y-104516000D01*
X70963056Y-104516000D01*
X71146827Y-104439879D01*
X71287480Y-104299227D01*
X71363600Y-104115456D01*
X71363600Y-103828747D01*
X71575789Y-104146311D01*
X71775000Y-104279419D01*
X71775000Y-104900000D01*
X68100000Y-104900000D01*
X68100000Y-103425000D01*
X68636400Y-103425000D01*
X68636400Y-104115456D01*
X68712520Y-104299227D01*
X68853173Y-104439879D01*
X69036944Y-104516000D01*
X69575000Y-104516000D01*
X69700000Y-104391000D01*
X69700000Y-103300000D01*
X68761400Y-103300000D01*
X68636400Y-103425000D01*
X68100000Y-103425000D01*
X68100000Y-101884544D01*
X68636400Y-101884544D01*
X68636400Y-102575000D01*
X68761400Y-102700000D01*
X69700000Y-102700000D01*
X69700000Y-101609000D01*
X69575000Y-101484000D01*
X69036944Y-101484000D01*
X68853173Y-101560121D01*
X68712520Y-101700773D01*
X68636400Y-101884544D01*
X68100000Y-101884544D01*
X68100000Y-100575000D01*
X99425000Y-100575000D01*
X99425000Y-149425000D01*
M02*
