G04 #@! TF.FileFunction,Soldermask,Top*
%FSLAX46Y46*%
G04 Gerber Fmt 4.6, Leading zero omitted, Abs format (unit mm)*
G04 Created by KiCad (PCBNEW 4.0.4-stable) date 09/13/16 18:24:55*
%MOMM*%
%LPD*%
G01*
G04 APERTURE LIST*
%ADD10C,0.100000*%
%ADD11C,2.800000*%
%ADD12R,2.800000X2.800000*%
%ADD13C,2.398980*%
%ADD14R,2.127200X2.432000*%
%ADD15O,2.127200X2.432000*%
%ADD16C,3.800000*%
G04 APERTURE END LIST*
D10*
D11*
X61000000Y-145000000D03*
D12*
X57500000Y-145000000D03*
D11*
X68500000Y-145000000D03*
D12*
X65000000Y-145000000D03*
D11*
X76000000Y-145000000D03*
D12*
X72500000Y-145000000D03*
D11*
X83500000Y-145000000D03*
D12*
X80000000Y-145000000D03*
D11*
X55000000Y-114500000D03*
D12*
X55000000Y-111000000D03*
D11*
X95000000Y-111000000D03*
D12*
X95000000Y-114500000D03*
D11*
X92500000Y-145000000D03*
D12*
X89000000Y-145000000D03*
D13*
X64000000Y-109500000D03*
X74160000Y-109500000D03*
X77500000Y-109500000D03*
X87660000Y-109500000D03*
X74000000Y-113000000D03*
X63840000Y-113000000D03*
X77500000Y-113000000D03*
X87660000Y-113000000D03*
X64000000Y-116500000D03*
X74160000Y-116500000D03*
X87500000Y-116500000D03*
X77340000Y-116500000D03*
D12*
X94500000Y-137500000D03*
X94500000Y-121500000D03*
X56500000Y-121500000D03*
X56500000Y-137500000D03*
D14*
X70000000Y-103000000D03*
D15*
X72540000Y-103000000D03*
X75080000Y-103000000D03*
X77620000Y-103000000D03*
X80160000Y-103000000D03*
D11*
X88500000Y-104500000D03*
D12*
X92000000Y-104500000D03*
D16*
X53000000Y-147000000D03*
X97000000Y-147000000D03*
X97000000Y-103000000D03*
X53000000Y-103000000D03*
D11*
X58000000Y-104500000D03*
D12*
X61500000Y-104500000D03*
M02*
